<!DOCTYPE svg PUBLIC "-//W3C//DTD SVG 1.1//EN" "http://www.w3.org/Graphics/SVG/1.1/DTD/svg11.dtd">
<!-- Uploaded to: SVG Repo, www.svgrepo.com, Transformed by: SVG Repo Mixer Tools -->
<svg fill="#00b386" height="800px" width="800px" version="1.1" id="Layer_1" xmlns="http://www.w3.org/2000/svg" xmlns:xlink="http://www.w3.org/1999/xlink" viewBox="0 0 512 512" xml:space="preserve">
<g id="SVGRepo_bgCarrier" stroke-width="0"/>
<g id="SVGRepo_tracerCarrier" stroke-linecap="round" stroke-linejoin="round"/>
<g id="SVGRepo_iconCarrier"> <g> <g> <path d="M485.517,39.834h-15.89c-69.738-22.952-144.772-22.952-213.628,0C188.91,16,109.462,16,42.372,39.834h-15.89H0V384.11 v17.655v26.483h317.793v61.793l44.138-32.662l44.138,32.662v-61.793H512v-26.483V384.11V39.834H485.517z M451.972,377.931 c4.414,1.766,8.828,3.531,12.359,5.297l1.766,0.883h-60.028v-16.772c10.593,0.883,20.303,2.648,30.014,5.297h0.883 c4.414,0.883,7.945,2.648,12.359,3.531C450.207,377.931,451.09,377.931,451.972,377.931z M308.966,101.628h123.586 c5.297,0,8.828,3.531,8.828,8.828c0,5.297-3.531,8.828-8.828,8.828H308.966c-5.297,0-8.828-3.531-8.828-8.828 C300.138,106.041,303.669,101.628,308.966,101.628z M441.379,154.593c0,2.648-0.883,4.414-2.648,6.179 c-1.766,1.766-3.531,2.648-6.179,2.648c-2.648,0-4.414-0.883-6.179-2.648c-0.883-0.883-1.766-1.766-1.766-2.648 c-0.883-0.883-0.883-2.648-0.883-3.531c0-2.648,0.883-4.414,2.648-6.179c0.883-0.883,1.766-1.766,2.648-1.766 c3.531-1.766,7.062-0.883,9.71,1.766C440.497,150.179,441.379,152.828,441.379,154.593z M308.966,145.765h79.448 c5.297,0,8.828,3.531,8.828,8.828c0,5.297-3.531,8.828-8.828,8.828h-79.448c-5.297,0-8.828-3.531-8.828-8.828 C300.138,150.179,303.669,145.765,308.966,145.765z M308.966,189.903h123.586c5.297,0,8.828,3.531,8.828,8.828 c0,5.297-3.531,8.828-8.828,8.828H308.966c-5.297,0-8.828-3.531-8.828-8.828C300.138,194.317,303.669,189.903,308.966,189.903z M441.379,242.869c0,2.648-0.883,4.414-2.648,6.179c-0.883,0.883-1.766,1.766-2.648,1.766s-2.648,0.883-3.531,0.883 c-2.648,0-4.414-0.883-6.179-2.648c-1.766-1.766-2.648-3.531-2.648-6.179c0-0.883,0-2.648,0.883-3.531s0.883-1.766,1.766-2.648 c3.531-3.531,9.71-3.531,12.359,0c0.883,0.883,1.766,1.766,1.766,2.648C441.379,241.103,441.379,241.986,441.379,242.869z M308.966,234.041h79.448c5.297,0,8.828,3.531,8.828,8.828c0,5.297-3.531,8.828-8.828,8.828h-79.448 c-5.297,0-8.828-3.531-8.828-8.828C300.138,238.455,303.669,234.041,308.966,234.041z M123.586,101.628h79.448 c5.297,0,8.828,3.531,8.828,8.828c0,5.297-3.531,8.828-8.828,8.828h-79.448c-5.297,0-8.828-3.531-8.828-8.828 C114.759,106.041,118.29,101.628,123.586,101.628z M80.331,106.924c0-0.883,0.883-1.766,1.766-2.648 c3.531-3.531,8.828-3.531,12.359,0c0.883,0.883,1.766,1.766,1.766,2.648c0.883,1.766,0.883,2.648,0.883,3.531 c0,2.648-0.883,4.414-2.648,6.179c-1.766,1.766-3.531,2.648-6.179,2.648c-2.648,0-4.414-0.883-6.179-2.648 c-1.766-1.766-2.648-3.531-2.648-6.179C79.448,109.572,79.448,108.69,80.331,106.924z M88.276,145.765h114.759 c5.297,0,8.828,3.531,8.828,8.828c0,5.297-3.531,8.828-8.828,8.828H88.276c-5.297,0-8.828-3.531-8.828-8.828 C79.448,150.179,82.979,145.765,88.276,145.765z M210.979,202.262c0,0.883-0.883,1.766-1.766,2.648 c-1.766,1.766-3.531,2.648-6.179,2.648s-4.414-0.883-6.179-2.648c-0.883-0.883-1.766-1.766-1.766-2.648s-0.883-1.766-0.883-3.531 c0-2.648,0.883-4.414,2.648-6.179c3.531-3.531,8.828-3.531,12.359,0c1.766,1.766,2.648,4.414,2.648,6.179 C211.862,199.614,211.862,201.379,210.979,202.262z M211.862,242.869c0,5.297-3.531,8.828-8.828,8.828h-79.448 c-5.297,0-8.828-3.531-8.828-8.828c0-5.297,3.531-8.828,8.828-8.828h79.448C208.331,234.041,211.862,238.455,211.862,242.869z M88.276,189.903h79.448c5.297,0,8.828,3.531,8.828,8.828c0,5.297-3.531,8.828-8.828,8.828H88.276 c-5.297,0-8.828-3.531-8.828-8.828C79.448,194.317,82.979,189.903,88.276,189.903z M80.331,239.338 c0-0.883,0.883-1.766,1.766-2.648c0.883-0.883,1.766-1.766,2.648-1.766c3.531-1.766,7.062-0.883,9.71,1.766 c0.883,0.883,1.766,1.766,1.766,2.648s0.883,1.766,0.883,3.531c0,2.648-0.883,4.414-2.648,6.179 c-1.766,1.766-3.531,2.648-6.179,2.648c-2.648,0-4.414-0.883-6.179-2.648s-2.648-3.531-2.648-6.179 C79.448,241.986,79.448,241.103,80.331,239.338z M88.276,278.179h114.759c5.297,0,8.828,3.531,8.828,8.828 s-3.531,8.828-8.828,8.828H88.276c-5.297,0-8.828-3.531-8.828-8.828C79.448,282.593,82.979,278.179,88.276,278.179z M47.669,383.228c3.531-1.766,7.062-2.648,10.593-4.414c0.883-0.883,2.648-0.883,3.531-1.766c2.648-0.883,4.414-1.766,7.062-2.648 c1.766,0.883,3.531,0,4.414,0c1.766-0.883,4.414-0.883,6.179-1.766c1.766,0,3.531-0.883,5.297-0.883 c1.766-0.883,4.414-0.883,6.179-0.883s3.531-0.883,5.297-0.883s4.414-0.883,6.179-0.883c1.766,0,3.531-0.883,5.297-0.883 c1.766,0,4.414,0,6.179-0.883c1.766,0,3.531,0,5.297,0s4.414,0,7.062,0c1.766,0,3.531,0,5.297,0c2.648,0,4.414,0,7.062,0 c1.766,0,3.531,0,5.297,0c2.648,0,6.179,0,8.828,0.883c0.883,0,2.648,0,3.531,0c4.414,0,7.945,0.883,12.359,1.766 c0.883,0,2.648,0,3.531,0.883c2.648,0.883,6.179,0.883,8.828,1.766c1.766,0,3.531,0.883,5.297,0.883 c2.648,0.883,5.297,0.883,7.945,1.766c1.766,0,3.531,0.883,5.297,0.883c2.648,0.883,5.297,0.883,7.945,1.766 c1.766,0.883,3.531,0.883,5.297,1.766c2.648,0.883,5.297,1.766,7.945,2.648c1.766,0.883,3.531,0.883,5.297,1.766 c0.883,0,2.648,0.883,3.531,0.883H45.903L47.669,383.228z M17.655,57.49h8.828V384.11h-8.828V57.49z M317.793,410.593H17.655 v-8.828h300.138V410.593z M317.793,384.11h-35.31c0.883,0,0.883,0,1.766-0.883c5.297-1.766,10.593-3.531,15.89-4.414 c6.179-1.766,11.476-3.531,17.655-4.414V384.11z M315.145,293.186c-1.766,1.766-3.531,2.648-6.179,2.648s-4.414-0.883-6.179-2.648 s-2.648-3.531-2.648-6.179c0-0.883,0-2.648,0.883-3.531c0-0.883,0.883-1.766,1.766-2.648c0.883-0.883,1.766-1.766,2.648-1.766 c1.766-0.883,4.414-0.883,7.062,0c0.883,0.883,1.766,0.883,2.648,1.766c0.883,0.883,1.766,1.766,1.766,2.648 c0.883,1.766,0.883,2.648,0.883,3.531C317.793,289.655,316.91,291.421,315.145,293.186z M388.414,384.11v17.655v26.483v26.483 l-26.483-19.421l-26.483,19.421v-26.483v-26.483V384.11v-13.241c18.538-3.531,36.193-4.414,52.966-4.414V384.11z M344.276,295.834 c-5.297,0-8.828-3.531-8.828-8.828s3.531-8.828,8.828-8.828h88.276c5.297,0,8.828,3.531,8.828,8.828s-3.531,8.828-8.828,8.828 H344.276z M494.345,410.593h-88.276v-8.828h88.276V410.593z M494.345,384.11h-8.828V57.49h8.828V384.11z"/> </g> </g> </g>
</svg>