<!DOCTYPE svg PUBLIC "-//W3C//DTD SVG 1.1//EN" "http://www.w3.org/Graphics/SVG/1.1/DTD/svg11.dtd">
<!-- Uploaded to: SVG Repo, www.svgrepo.com, Transformed by: SVG Repo Mixer Tools -->
<svg width="800px" height="800px" viewBox="0 0 48 48" id="b" xmlns="http://www.w3.org/2000/svg" fill="#00b386" stroke="#00b386" stroke-width="2.112">
<g id="SVGRepo_bgCarrier" stroke-width="0"/>
<g id="SVGRepo_tracerCarrier" stroke-linecap="round" stroke-linejoin="round"/>
<g id="SVGRepo_iconCarrier"> <defs> <style>.c{fill:none;stroke:#00b386;stroke-linecap:round;stroke-linejoin:round;}</style> </defs> <g> <path class="c" d="m41.68,13h-16.91c-2-.1-5.93-4.23-8.19-4.23H6.68c-1.204-.0003-2.1803.9754-2.1806,2.1794,0,.0169.0002.0337.0006.0506h0v7.29h39v-3.42c.0221-1.0104-.7791-1.8475-1.7895-1.8696-.0102-.0002-.0203-.0004-.0305-.0004Z"/> <path class="c" d="m4.5,18.28v18.72c-.0111,1.2039.956,2.1889,2.1599,2.1999.0034,0,.0067,0,.0101,0h34.65c1.204,0,2.18-.9759,2.1801-2.1799,0-.0067,0-.0134,0-.0201h0v-18.72"/> </g> <g> <path class="c" d="m31.2741,22.7541h2.4291c2.2215,0,4.0224,1.8048,4.0224,4.0311s-1.8009,4.0311-4.0224,4.0311l4.0224,3.9377"/> <line class="c" x1="33.7032" y1="22.7541" x2="39.2259" y2="22.7541"/> <line class="c" x1="31.2741" y1="26.8051" x2="39.2259" y2="26.8051"/> </g> </g>
</svg>