<!DOCTYPE svg PUBLIC "-//W3C//DTD SVG 1.1//EN" "http://www.w3.org/Graphics/SVG/1.1/DTD/svg11.dtd">
<!-- Uploaded to: SVG Repo, www.svgrepo.com, Transformed by: SVG Repo Mixer Tools -->
<svg fill="#00b386" height="800px" width="800px" version="1.1" id="Layer_1" xmlns="http://www.w3.org/2000/svg" xmlns:xlink="http://www.w3.org/1999/xlink" viewBox="0 0 511.999 511.999" xml:space="preserve">
<g id="SVGRepo_bgCarrier" stroke-width="0"/>
<g id="SVGRepo_tracerCarrier" stroke-linecap="round" stroke-linejoin="round"/>
<g id="SVGRepo_iconCarrier"> <g> <g> <path d="M495.83,111.302c-9.217,0-17.141,7.473-17.141,16.696v16.807H353.265c-18.087,0-35.376,7.329-47.81,20.464 c0.162-0.173-36.785,37.554-71.79,73.651V133.562h16.807c15.494,0,22.578-19.336,10.864-29.37L144.467,4.019 c-6.25-5.358-15.478-5.358-21.728,0L5.869,104.193c-11.723,10.041-4.621,29.37,10.864,29.37h16.696v116.87 c0,9.217,7.473,16.696,16.696,16.696h156.364c-10.011,10.38-18.804,19.542-24.966,26.052 c-18.724,19.781-18.285,50.858,0.974,70.118c19.64,19.64,51.48,19.64,71.12,0l70.947-70.947 c6.293-6.294,16.651-7.565,23.434-1.802c7.561,6.426,7.84,17.745,1.028,24.557l-60.554,60.554 c-23.155,23.155-54.559,36.274-87.305,36.274H61.861c-29.256,0-52.676,24.978-49.855,54.855 c2.459,26.055,25.819,45.207,51.99,45.207h178.041c15.229,0.072,29.956-1.631,43.92-5.028 c27.935-6.795,52.807-20.368,72.494-40.054l120.351-112.984v7.805c0,9.217,7.812,16.696,17.03,16.696s16.139-7.479,16.139-16.696 V127.997C511.969,118.773,505.047,111.302,495.83,111.302z M200.385,233.848h-50.198v-50.198c0-9.217-7.362-16.696-16.584-16.696 c-9.223,0-16.696,7.479-16.696,16.696v50.198H66.708V133.562h133.677V233.848z"/> </g> </g> </g>
</svg>