<!DOCTYPE svg PUBLIC "-//W3C//DTD SVG 1.1//EN" "http://www.w3.org/Graphics/SVG/1.1/DTD/svg11.dtd">
<!-- Uploaded to: SVG Repo, www.svgrepo.com, Transformed by: SVG Repo Mixer Tools -->
<svg height="800px" width="800px" version="1.1" id="Layer_1" xmlns="http://www.w3.org/2000/svg" xmlns:xlink="http://www.w3.org/1999/xlink" viewBox="0 0 512.002 512.002" xml:space="preserve" fill="#000000">
<g id="SVGRepo_bgCarrier" stroke-width="0"/>
<g id="SVGRepo_tracerCarrier" stroke-linecap="round" stroke-linejoin="round"/>
<g id="SVGRepo_iconCarrier"> <g> <path style="fill:#00b386;" d="M423.798,441.38H176.555c-14.627,0-26.483-11.855-26.483-26.483V203.035 c0-14.627,11.855-26.483,26.483-26.483h277.919L270.065,12.96c-17.752-17.09-45.833-17.09-63.576,0L123.66,88.277V35.311h17.655 V0.001H35.384v35.31h17.655V150.07L3.675,192.875c-7.477,6.63-2.781,18.988,7.212,18.988h42.152v264.828H35.384v35.31h405.998 l0.071-35.31h-17.655V441.38z"/> <path style="fill:#F0C419;" d="M485.519,441.38H176.554c-14.627,0-26.483-11.855-26.483-26.483V203.035 c0-14.627,11.855-26.483,26.483-26.483h308.966c14.627,0,26.483,11.855,26.483,26.483v211.862 C512.002,429.525,500.147,441.38,485.519,441.38"/> <g> <polygon style="fill:#F29C21;" points="150.071,273.656 512.002,273.656 512.002,220.691 150.071,220.691 "/> <polygon style="fill:#F29C21;" points="361.933,406.07 476.692,406.07 476.692,344.277 361.933,344.277 "/> <path style="fill:#F29C21;" d="M229.519,326.622h-44.138c-4.873,0-8.828-3.955-8.828-8.828c0-4.873,3.955-8.828,8.828-8.828 h44.138c4.873,0,8.828,3.955,8.828,8.828C238.347,322.667,234.392,326.622,229.519,326.622"/> <path style="fill:#F29C21;" d="M317.188,326.622h-57.459c-4.873,0-8.828-3.955-8.828-8.828c0-4.873,3.955-8.828,8.828-8.828 h57.459c4.873,0,8.828,3.955,8.828,8.828C326.015,322.667,322.061,326.622,317.188,326.622"/> <path style="fill:#F29C21;" d="M272.442,361.932h-87.058c-4.882,0-8.828-3.955-8.828-8.828c0-4.873,3.946-8.828,8.828-8.828 h87.058c4.873,0,8.828,3.955,8.828,8.828C281.269,357.977,277.314,361.932,272.442,361.932"/> <path style="fill:#F29C21;" d="M317.188,361.932h-17.046c-4.873,0-8.828-3.955-8.828-8.828c0-4.873,3.955-8.828,8.828-8.828 h17.046c4.873,0,8.828,3.955,8.828,8.828C326.015,357.977,322.061,361.932,317.188,361.932"/> </g> </g> </g>
</svg>