<!DOCTYPE svg PUBLIC "-//W3C//DTD SVG 1.1//EN" "http://www.w3.org/Graphics/SVG/1.1/DTD/svg11.dtd">
<!-- Uploaded to: SVG Repo, www.svgrepo.com, Transformed by: SVG Repo Mixer Tools -->
<svg width="800px" height="800px" viewBox="-54.23 0 472.279 472.279" xmlns="http://www.w3.org/2000/svg" fill="#000000">
<g id="SVGRepo_bgCarrier" stroke-width="0"/>
<g id="SVGRepo_tracerCarrier" stroke-linecap="round" stroke-linejoin="round"/>
<g id="SVGRepo_iconCarrier">
<defs>
<style>.a{fill:#ffffff;}.b{fill:#7a7473;}.c{fill:#211715;}.d{fill:#00b386;}.e{fill:#b3b3b3;}.f{fill:#655e5d;}.g{fill:#c6c6c6;}.h{fill:#00b386;}</style>
</defs>
<path class="a" d="M324.161,52.114a4.616,4.616,0,0,1,3.692-1.08,4.358,4.358,0,0,1,3.133,2.083,6.152,6.152,0,0,1,.645,2.478,18.453,18.453,0,0,1-1.882,9.785,11.726,11.726,0,0,1-3.034,3.982,7.769,7.769,0,0,1-3.618,1.631l-.617.095c-.3,1.112-.632,2.048-.8,2.545-1,2.709-6.343,11.735-13.213,15.744a48.927,48.927,0,0,0,.77,8.155c.437,2.491.3,4.718,3.764,5.969.229.082,2.153.842,2.672,1.07,0,0,1.919,17.065-22.715,17.065s-22.094-17.269-22.094-17.269c.425-.182,1.862-.784,2.091-.866,3.464-1.251,3.327-3.478,3.764-5.969a48.479,48.479,0,0,0,.768-8.474,28.638,28.638,0,0,1-7.031-6.205,31.4,31.4,0,0,1-5.983-11.68l-1.179-.18a7.77,7.77,0,0,1-3.617-1.631,11.726,11.726,0,0,1-3.034-3.982,18.463,18.463,0,0,1-1.883-9.785,6.169,6.169,0,0,1,.645-2.478,4.36,4.36,0,0,1,3.133-2.083,4.613,4.613,0,0,1,3.692,1.08s-7.495-28.256,30.283-28.256S324.161,52.114,324.161,52.114Z"/>
<path class="b" d="M280.526,3.04a30.946,30.946,0,0,0-15.519,8.354l3.555,1.889c-5.075,2.729-9.087,8.7-10.876,13.957-2,5.867-2.591,14.222-.2,24.094a4.33,4.33,0,0,1,1.06-.3,4.562,4.562,0,0,1,3.954,1.34c8.926-8.54,16.7-13.608,24.551-19.772.045.522,1.717,4.7,2.108,4.861.523.213,6.157-3.316,10.218-5.821.374.066,6.642,1.545,6.642,1.545a23.92,23.92,0,0,1,7.518,4.4,42.95,42.95,0,0,1,10.481,14.684,4.526,4.526,0,0,1,4.644-1.042c2.294-5.891,2.63-14.429-.267-22.53-2.037-5.695-7.116-11.663-10.723-13.326l-5.208-3.745c-4.437-6.077-11.145-9.281-20.61-9.57A45.691,45.691,0,0,0,280.526,3.04Z"/>
<path class="c" d="M321.05,67.558a17.462,17.462,0,0,1-1.016,4.71c-.091.278-.2.553-.279.833-.037.125-.2.479.023-.033-.142.33-.3.654-.459.975a39.591,39.591,0,0,1-3.41,5.483c-2.979,4.084-7.021,8.411-12.122,9.607-2.506.588-1.445,4.446,1.063,3.858,6.067-1.424,10.776-6.386,14.345-11.219,3.084-4.176,5.64-8.907,5.855-14.214.1-2.574-3.9-2.57-4,0Z"/>
<path class="c" d="M261.555,67.277a35.849,35.849,0,0,0,7.631,17.156c4.293,5.083,9.976,8.76,16.67,9.483a2.012,2.012,0,0,0,2-2,2.045,2.045,0,0,0-2-2c-5.751-.621-10.556-4.3-14.124-8.65-3.517-4.29-5.376-9.651-6.32-15.052a2.015,2.015,0,0,0-2.46-1.4,2.046,2.046,0,0,0-1.4,2.46Z"/>
<path class="c" d="M325.575,53.529a2.534,2.534,0,0,1,3.609.475,5.272,5.272,0,0,1,.508,2.666,15.709,15.709,0,0,1-.222,3.22c-.7,3.829-2.651,8.412-6.9,9.174a2.017,2.017,0,0,0-1.4,2.461,2.044,2.044,0,0,0,2.46,1.4c6.446-1.155,9.52-8.436,10-14.279.249-2.992.014-6.42-2.576-8.36a6.648,6.648,0,0,0-8.311.418,2.016,2.016,0,0,0,0,2.829,2.044,2.044,0,0,0,2.828,0Z"/>
<path class="c" d="M263.649,50.7a6.652,6.652,0,0,0-8.312-.418c-2.591,1.935-2.824,5.372-2.576,8.36.485,5.842,3.56,13.124,10.006,14.279a2.056,2.056,0,0,0,2.46-1.4,2.018,2.018,0,0,0-1.4-2.461c-4.253-.762-6.206-5.345-6.9-9.174a15.557,15.557,0,0,1-.225-3.041,6.059,6.059,0,0,1,.435-2.723,2.52,2.52,0,0,1,3.684-.6,2.057,2.057,0,0,0,2.829,0,2.018,2.018,0,0,0,0-2.829Z"/>
<path class="c" d="M316.658,17.1a17.364,17.364,0,0,1,5.669,4.99,25.777,25.777,0,0,1,4.442,8.036,31.8,31.8,0,0,1,.367,19.438c-.788,2.457,3.073,3.509,3.857,1.064a35.578,35.578,0,0,0-.517-22.013,30.775,30.775,0,0,0-5.2-9.2,20.218,20.218,0,0,0-6.6-5.768c-2.308-1.112-4.339,2.336-2.019,3.454Z"/>
<path class="c" d="M299.388,29.284c-3.167,1.944-6.287,4.005-9.565,5.758-.247.132-.5.257-.746.383s-.07.093.042,0a1.426,1.426,0,0,1-.224.081c-.184-.281,2,1.506,1.785.717-.024-.093-.12-.176-.155-.268-.1-.254-.255-.5-.37-.748a12.674,12.674,0,0,1-1.18-3.131c-.261-1.662-2.31-1.692-3.343-.883-7.976,6.252-16.279,12.015-23.7,18.955-1.884,1.763.949,4.587,2.828,2.829,7.417-6.939,15.722-12.7,23.7-18.956l-3.343-.882a16.83,16.83,0,0,0,1.681,4.3c.71,1.481,1.814,2.448,3.516,1.792a32.268,32.268,0,0,0,4.887-2.672c2.079-1.253,4.136-2.541,6.2-3.811,2.19-1.344.183-4.806-2.019-3.454Z"/>
<path class="c" d="M305.484,35.116c7.861,3.085,13.135,10.2,16.577,17.664a2.015,2.015,0,0,0,2.736.717,2.046,2.046,0,0,0,.718-2.736,47.06,47.06,0,0,0-7.472-11.519,31.533,31.533,0,0,0-5.387-4.857,28.5,28.5,0,0,0-6.109-3.127,2.015,2.015,0,0,0-2.46,1.4,2.047,2.047,0,0,0,1.4,2.461Z"/>
<path class="c" d="M269.805,10.551c-7.114,2.715-12.091,9.815-14.285,16.89-2.434,7.85-1.849,16.455.016,24.352.591,2.505,4.449,1.445,3.857-1.063-1.66-7.029-2.207-14.6-.2-21.622,1.67-5.829,5.757-12.443,11.671-14.7a2.057,2.057,0,0,0,1.4-2.461,2.015,2.015,0,0,0-2.46-1.4Z"/>
<path class="c" d="M314.187,10.622A25.671,25.671,0,0,0,296.949.529a43.856,43.856,0,0,0-21.943,2.087A33.028,33.028,0,0,0,263.593,9.98c-1.83,1.816,1,4.645,2.828,2.829a30.7,30.7,0,0,1,18.05-8.442c6.188-.769,13.154-.592,18.86,2.178a20.073,20.073,0,0,1,7.4,6.1,2.06,2.06,0,0,0,2.736.717,2.014,2.014,0,0,0,.718-2.736Z"/>
<path class="a" d="M249,168.013c-5.929-.95-19.34-2.19-24.114-3.209.8-4.877,4.013-26.625,5.2-31.238.52-1.37,1.019-2.76,1.581-4.121l1.108-1.833c2.81-4.645,7.31-7.992,11.852-10.967,8.621-5.648,15.456-9.578,25.122-13.388a25.875,25.875,0,0,1,5.553-7.778,53.48,53.48,0,0,0,14.511,10.153c.3.145.832.4.93.717h5.015c.1-.319.437-.488.742-.626a50.911,50.911,0,0,0,14.7-10.244,25.742,25.742,0,0,1,5.5,7.666c9.822,3.843,16.707,7.8,25.415,13.5,4.541,2.975,9.042,6.322,11.851,10.967l1.109,1.833c.561,1.361,1.061,2.751,1.58,4.121,1.184,4.613,4.4,26.361,5.2,31.238-4.774,1.019-18.184,2.259-24.114,3.209Z"/>
<path class="c" d="M363.774,164.273c-1.388-8.485-2.58-17-4.062-25.471-.29-1.658-.579-3.321-.944-4.965a24.384,24.384,0,0,0-3.3-7.589c-3.847-6.071-10.153-9.991-16.1-13.746a131.475,131.475,0,0,0-21.375-10.985,2.013,2.013,0,0,0-2.46,1.4,2.048,2.048,0,0,0,1.4,2.461,121.178,121.178,0,0,1,18.245,9.229c5.686,3.483,12.175,7.105,16.142,12.629a21.837,21.837,0,0,1,3.517,7.331c.366,1.466.606,2.972.871,4.459.824,4.619,1.551,9.255,2.276,13.89.648,4.141,1.259,8.288,1.935,12.424a2.016,2.016,0,0,0,2.461,1.4,2.046,2.046,0,0,0,1.4-2.46Z"/>
<path class="c" d="M226.818,165.336c1.354-8.276,2.524-16.581,3.953-24.844.718-4.148,1.411-8.068,3.647-11.732,3.49-5.719,9.437-9.313,14.968-12.8a126,126,0,0,1,20.419-10.582,2.064,2.064,0,0,0,1.4-2.461,2.013,2.013,0,0,0-2.46-1.4,126.739,126.739,0,0,0-19.022,9.523c-5.948,3.632-12.438,7.4-16.821,12.94a28.228,28.228,0,0,0-4.656,8.826,32.955,32.955,0,0,0-.947,4.462c-.843,4.649-1.575,9.319-2.307,13.987-.68,4.338-1.319,8.684-2.028,13.018a2.061,2.061,0,0,0,1.4,2.46,2.016,2.016,0,0,0,2.46-1.4Z"/>
<path class="a" d="M318.654,423.292a30.527,30.527,0,0,0,3.457,13.93l-22.178-.43.085-12.46"/>
<path class="a" d="M269.874,423.292a30.54,30.54,0,0,1-3.457,13.93l22.177-.43-.085-12.46"/>
<path class="c" d="M267.628,423.292a28.71,28.71,0,0,1-3.184,12.921,2.045,2.045,0,0,0,.718,2.736,2.02,2.02,0,0,0,2.736-.717,33.156,33.156,0,0,0,3.73-14.94,2,2,0,0,0-4,0Z"/>
<path class="c" d="M286.263,424.332l.086,12.46a2,2,0,0,0,4,0l-.086-12.46a2,2,0,0,0-4,0Z"/>
<path class="b" d="M247.024,465.813c-.116-.151-.226-.308-.329-.469a8.807,8.807,0,0,1-.583-7.38,24.183,24.183,0,0,1,3.787-6.608q5.483-7.486,11.588-14.49c1.587-1.82,3.38-3.716,5.753-4.164a3.567,3.567,0,0,0,1.773,3.742,8.365,8.365,0,0,0,4.278.966A23.741,23.741,0,0,0,289.91,430.8c-.027,5,.023,6.663,0,11.664a10.48,10.48,0,0,1-.438,3.607c-1.028,2.78-4.076,4.119-6.522,5.793-6.363,4.354-9.714,12.3-16.382,16.17a17.211,17.211,0,0,1-15.914.57A10.024,10.024,0,0,1,247.024,465.813Z"/>
<path class="c" d="M316.654,423.292a33.156,33.156,0,0,0,3.73,14.94,2,2,0,0,0,3.454-2.019,28.684,28.684,0,0,1-3.184-12.921,2,2,0,1,0-4,0Z"/>
<path class="c" d="M298.018,424.332l-.085,12.46a2,2,0,0,0,4,0l.085-12.46a2,2,0,0,0-4,0Z"/>
<path class="b" d="M341.258,465.813c.116-.151.226-.308.329-.469a8.807,8.807,0,0,0,.583-7.38,24.16,24.16,0,0,0-3.788-6.608q-5.481-7.486-11.587-14.49c-1.587-1.82-3.38-3.716-5.753-4.164a3.567,3.567,0,0,1-1.773,3.742,8.367,8.367,0,0,1-4.278.966,23.746,23.746,0,0,1-16.62-6.614c.028,5-.022,6.663,0,11.664a10.48,10.48,0,0,0,.438,3.607c1.028,2.78,4.076,4.119,6.522,5.793,6.363,4.354,9.714,12.3,16.382,16.17a17.211,17.211,0,0,0,15.914.57A10.024,10.024,0,0,0,341.258,465.813Z"/>
<path class="c" d="M248.751,464.8c-1.765-2.411-1.3-5.449-.01-7.976a55.661,55.661,0,0,1,5.738-8.271q3.174-4.14,6.56-8.112c1.828-2.153,3.806-5.162,6.732-5.814l-2.46-2.461a5.829,5.829,0,0,0,3.883,6.568c2.633,1.032,5.781.761,8.511.323a25.448,25.448,0,0,0,13.62-6.851L287.91,430.8c-.021,4.261.165,8.554-.02,12.81-.094,2.138-1.179,3.407-2.893,4.565a57.657,57.657,0,0,0-5.2,3.609c-6.048,5.129-9.634,13.857-17.855,16-4.468,1.166-10.438.41-13.5-3.383a2.012,2.012,0,0,0-2.828,0,2.048,2.048,0,0,0,0,2.829c3.109,3.849,8.921,5.341,13.677,5.006a20.357,20.357,0,0,0,12.979-6.144c3.2-3.157,5.678-6.96,8.877-10.119a31.092,31.092,0,0,1,5.264-3.947,11.806,11.806,0,0,0,4.659-4.621c1.259-2.721.855-6.042.848-8.965-.006-2.547-.017-5.094,0-7.642a2.022,2.022,0,0,0-3.414-1.414,21.425,21.425,0,0,1-9.4,5.292,20.461,20.461,0,0,1-6.214.725c-1.137-.045-4.06-.4-3.718-2.165a2.027,2.027,0,0,0-2.46-2.46c-3.578.8-5.931,3.833-8.189,6.48q-4.028,4.721-7.783,9.662c-4.039,5.3-10.389,13.142-5.439,19.907a2.059,2.059,0,0,0,2.736.717A2.015,2.015,0,0,0,248.751,464.8Z"/>
<path class="c" d="M342.985,466.823c4.95-6.764-1.4-14.611-5.44-19.907q-3.764-4.932-7.782-9.662c-2.258-2.648-4.61-5.682-8.189-6.48a2.027,2.027,0,0,0-2.46,2.46c.342,1.766-2.586,2.12-3.718,2.165a20.461,20.461,0,0,1-6.214-.725,21.43,21.43,0,0,1-9.4-5.292,2.023,2.023,0,0,0-3.415,1.414c.012,2.269.006,4.537,0,6.805a48.066,48.066,0,0,0,.189,7.676c.812,5.082,5.968,6.587,9.377,9.571,3.39,2.967,5.9,6.763,8.938,10.057,3.234,3.5,7.2,6.272,11.985,7.07,5.371.894,12.207-.283,15.813-4.747a2.061,2.061,0,0,0,0-2.829,2.015,2.015,0,0,0-2.828,0c-2.682,3.32-7.738,4.32-11.788,3.739-4.286-.615-7.624-3.079-10.478-6.2-2.743-3-5.056-6.374-8-9.182a30.281,30.281,0,0,0-4.907-3.7c-1.436-.9-3.228-1.881-3.928-3.523a11.011,11.011,0,0,1-.371-4.221q-.006-1.775,0-3.548c.008-2.324.014-4.647,0-6.97l-3.414,1.414a25.448,25.448,0,0,0,13.62,6.851c2.665.427,5.737.7,8.324-.252a5.866,5.866,0,0,0,4.07-6.639l-2.46,2.461c2.862.638,4.785,3.526,6.578,5.632q3.458,4.064,6.714,8.294a57.644,57.644,0,0,1,5.642,8.083c1.343,2.571,1.9,5.682.086,8.164a2.014,2.014,0,0,0,.718,2.736A2.046,2.046,0,0,0,342.985,466.823Z"/>
<path class="a" d="M249.322,236.257c1.651,17.269,3.488,51.4,5.175,79.424,1.986,33,2.8,106.105,3.245,113.47,4.933,1.645,24.116,1.761,35.557-.426,0,0,.308-.059.626-.116,9.392,1.953,31.385,2.187,36.318.542.445-7.365,1.259-80.473,3.245-113.47,1.687-28.02,3.012-61.687,4.662-78.956"/>
<path class="c" d="M275.49,89.788a45.221,45.221,0,0,1-.432,5.562,41.926,41.926,0,0,1-.695,4.153c-.031.125-.064.25-.1.373-.017.056-.158.47-.054.193s-.061.124-.09.178c-.074.139-.159.265-.241.4.142-.229.109-.117-.039.035-.1.1-.2.2-.3.3-.333.316.25-.1-.187.129-.15.08-.292.176-.443.255-.337.175-.756.322-1.218.513q-.915.378-1.826.767a2.012,2.012,0,0,0-.718,2.736,2.054,2.054,0,0,0,2.737.718c.251-.107.161-.068-.039.016l.445-.187c.291-.121.581-.243.873-.361a14.993,14.993,0,0,0,2.038-.9,6.463,6.463,0,0,0,2.944-3.8,31.246,31.246,0,0,0,.756-4.314,53.587,53.587,0,0,0,.6-6.763,2,2,0,0,0-4,0Z"/>
<path class="c" d="M306.474,89.788a53.841,53.841,0,0,0,.65,7.135,23.051,23.051,0,0,0,.82,4.307,6.49,6.49,0,0,0,3.392,3.728c.614.29,1.259.515,1.891.764q.483.191.965.385l.455.185c.487.194-.238-.105.02.006a2.066,2.066,0,0,0,2.737-.717,2.014,2.014,0,0,0-.718-2.736c-1.038-.45-2.091-.872-3.15-1.273a5.335,5.335,0,0,1-.834-.415c-.109-.064-.367-.246-.136-.066a3.619,3.619,0,0,1-.382-.35c-.04-.042-.319-.395-.157-.171s-.114-.206-.142-.255c-.062-.112-.118-.227-.17-.343.206.456.014-.012-.012-.1a28.051,28.051,0,0,1-.721-4.017,45.707,45.707,0,0,1-.508-6.071,2,2,0,0,0-4,0Z"/>
<path class="c" d="M247.322,236.257c1.436,15.085,2.257,30.235,3.162,45.359.909,15.207,1.938,30.416,2.6,45.637.569,13.1.932,26.209,1.256,39.318q.476,19.254.83,38.512c.152,7.68.215,15.37.524,23.046.013.341.028.682.048,1.022a2.076,2.076,0,0,0,1.469,1.928,28.745,28.745,0,0,0,6.559,1.007c3.1.241,6.206.306,9.31.289a115.967,115.967,0,0,0,20.751-1.721c2.526-.476,1.457-4.332-1.064-3.857a110,110,0,0,1-19.687,1.578c-3.011.017-6.028-.045-9.032-.268a22.923,22.923,0,0,1-5.774-.885l1.468,1.929c-.4-6.678-.36-13.4-.493-20.086q-.374-18.783-.79-37.565c-.315-13.343-.669-26.688-1.2-40.025-.573-14.413-1.53-28.808-2.38-43.207-.942-15.95-1.824-31.914-3.181-47.836q-.179-2.088-.376-4.175a2.055,2.055,0,0,0-2-2,2.015,2.015,0,0,0-2,2Z"/>
<path class="c" d="M336.15,236.725c-1.441,15.164-2.061,30.414-2.85,45.622-.784,15.106-1.765,30.207-2.416,45.319-.564,13.073-.925,26.154-1.247,39.234q-.473,19.157-.824,38.315c-.151,7.636-.214,15.282-.522,22.914-.013.341-.028.682-.048,1.022l1.468-1.929a12.808,12.808,0,0,1-1.908.429c-.631.1-1.357.179-2.306.261-2.358.2-4.726.282-7.091.316a164.86,164.86,0,0,1-16.543-.561,64.7,64.7,0,0,1-7.407-.986c-2.513-.514-3.587,3.341-1.063,3.857a96.472,96.472,0,0,0,15.388,1.557,138.3,138.3,0,0,0,16.109-.134,25.678,25.678,0,0,0,5.885-.882,2.073,2.073,0,0,0,1.468-1.928c.394-6.637.359-13.318.491-19.962q.369-18.6.78-37.2c.314-13.315.665-26.631,1.189-39.94.565-14.341,1.5-28.665,2.249-43,.834-16.034,1.518-32.092,2.826-48.1q.172-2.118.372-4.233a2.014,2.014,0,0,0-2-2,2.043,2.043,0,0,0-2,2Z"/>
<path class="c" d="M292.141,279.371c0,13.184-.146,26.368-.216,39.551-.046,8.585-.043,17.171-.06,25.756q-.033,16.8-.064,33.607-.027,16.7-.02,33.4.007,5.727.037,11.454c.012,1.763-.058,3.559.085,5.319a2.3,2.3,0,0,0,1.012,1.877,2.012,2.012,0,0,0,2.737-.717,2.052,2.052,0,0,0-.718-2.737h0l.718.718c.128.237.251,1.372.241.641,0-.282-.018-.565-.024-.847-.022-1.012-.031-2.024-.039-3.036-.03-3.525-.037-7.05-.044-10.575q-.029-16.138.012-32.279.024-16.944.063-33.886c.017-8.135.01-16.27.045-24.405.058-13.467.188-26.933.231-40.4q0-1.721.006-3.441c0-2.574-4-2.578-4,0Z"/>
<path class="c" d="M249.65,235.607h89.025c2.574,0,2.578-4,0-4H249.65c-2.573,0-2.578,4,0,4Z"/>
<path class="d" d="M262.95,128.256c2.427.76,56.572.3,61.48-.507.589-3.478,1.726-17.885,2.593-21.274a34.173,34.173,0,0,1,11.324,5.966c.4,3.847-.687,21.909-.687,24.847,0,9.142-2.439,38.627-1.978,50.395.849,10.051,13.58,110.831,11.8,141.536a1.051,1.051,0,0,1-.95.931c-7.635,1.371-41.2,1.815-51.253,1.815,0,0-45.835-.74-51.208-1.851a1.087,1.087,0,0,1-.965-.995c-1.6-40.042,8.913-131.2,8.66-141.436-.313-12.656-2.713-40.66-2.713-49.8,0-2.939-.951-21.716-.449-25.482,2.25-2,9.261-5.873,11.542-6.4C260.668,108.118,262.207,124.135,262.95,128.256Z"/>
<path class="a" d="M305.022,118.449c4.72-4.691,7.812-10.373,11.3-16.049a25.16,25.16,0,0,0-5.123-6.921,50.911,50.911,0,0,1-14.7,10.244c-.305.138-.644.307-.742.626a1.753,1.753,0,0,0,.318,1.074c.306.465,1.313,1.751,2.892,3.683C301.036,113.637,303.633,116.738,305.022,118.449Z"/>
<path class="a" d="M281.477,118.449c-4.72-4.691-7.812-10.373-11.3-16.049a25.16,25.16,0,0,1,5.123-6.921,53.48,53.48,0,0,0,14.511,10.153c.3.145.832.4.93.717.085.277-.286.985-.446,1.226-.384.576-1.185,1.6-2.764,3.531C285.463,113.637,282.866,116.738,281.477,118.449Z"/>
<path class="c" d="M306.436,119.863a65.381,65.381,0,0,0,9.2-12.469c.665-1.1,1.324-2.2,1.991-3.289a3.012,3.012,0,0,0,.662-1.971,5.608,5.608,0,0,0-.876-1.912,26.592,26.592,0,0,0-4.8-6.157,2.033,2.033,0,0,0-2.828,0,48.188,48.188,0,0,1-8.115,6.548,50.416,50.416,0,0,1-4.463,2.56c-1.369.692-3.119,1.17-3.413,2.911a4.123,4.123,0,0,0,1.135,3.14c.925,1.214,1.89,2.4,2.857,3.579,1.932,2.36,3.9,4.694,5.823,7.06a2.013,2.013,0,0,0,2.828,0,2.046,2.046,0,0,0,0-2.828c-1.647-2.025-3.325-4.025-4.984-6.039-.881-1.07-1.76-2.141-2.622-3.226-.2-.248-1.085-1.089-1.073-1.421l-.273,1.01q-.427.356.024.091l.342-.157c.345-.162.689-.325,1.031-.494q1.046-.519,2.067-1.089,2.1-1.173,4.09-2.541a52.988,52.988,0,0,0,7.574-6.276h-2.828a24.256,24.256,0,0,1,4.81,6.517v-2.019c-3.337,5.443-6.447,11.081-10.986,15.644C301.79,118.862,304.617,121.691,306.436,119.863Z"/>
<path class="c" d="M282.891,117.035c-4.539-4.563-7.649-10.2-10.986-15.644v2.019a24.235,24.235,0,0,1,4.81-6.517h-2.828a51.97,51.97,0,0,0,7.7,6.311q1.96,1.328,4.028,2.489,1,.563,2.02,1.085c.333.17.668.333,1,.5.313.156.668.583.379.081l-.273-1.01c-.013-.3-.2.258-.327.439-.206.3-.4.542-.547.732-.841,1.075-1.711,2.127-2.578,3.181-1.739,2.114-3.5,4.21-5.227,6.334a2.058,2.058,0,0,0,0,2.828,2.014,2.014,0,0,0,2.828,0c2-2.461,4.048-4.886,6.055-7.343.888-1.087,1.782-2.174,2.621-3.3a4.688,4.688,0,0,0,1.175-2.872c-.069-1.794-1.916-2.42-3.257-3.111q-2.243-1.156-4.379-2.506a47.808,47.808,0,0,1-8.391-6.667,2.036,2.036,0,0,0-2.828,0,26.517,26.517,0,0,0-4.7,5.99,8.276,8.276,0,0,0-.936,1.814,2.764,2.764,0,0,0,.626,2.236c.667,1.094,1.326,2.193,1.991,3.289a65.381,65.381,0,0,0,9.2,12.469C281.881,121.69,284.71,118.862,282.891,117.035Z"/>
<path class="c" d="M291.4,107.322c0,4.84-.337,9.706-.131,14.543a2.041,2.041,0,0,0,2,2,2.019,2.019,0,0,0,2-2c-.206-4.837.127-9.7.131-14.543a2,2,0,0,0-4,0Z"/>
<path class="c" d="M262.419,130.185a11.319,11.319,0,0,0,2.55.256c1.5.071,2.991.1,4.487.126,4.627.079,9.254.083,13.881.074,10.626-.022,21.257-.12,31.879-.422a75.7,75.7,0,0,0,9.746-.542,1.925,1.925,0,0,0,1.4-1.4c.6-3.6.853-7.268,1.231-10.9a75.841,75.841,0,0,1,1.361-10.38l-2.46,1.4a28.366,28.366,0,0,1,10.442,5.452l-.586-1.414c.4,4.149-.016,8.465-.187,12.617-.166,4.029-.453,8.066-.5,12.1-.115,10.085-.966,20.165-1.477,30.235-.386,7.611-1.045,15.383-.233,22.984.623,5.829,1.31,11.652,1.971,17.477q1.548,13.624,3.019,27.259,1.7,15.9,3.206,31.812c.968,10.395,1.854,20.8,2.534,31.218.543,8.33,1.008,16.685.968,25.035-.008,1.573-.036,3.146-.1,4.717a3.253,3.253,0,0,0-.049,1.02c.068.16-.331.718.246-.27.648-1.109.326-.311.14-.4-.086-.043-.391.062-.5.08-.232.038-.349.048-.025.006-.177.023-.355.045-.533.066q-.594.07-1.188.128c-4.389.432-8.806.605-13.211.774-10.43.4-20.871.584-31.308.654-4.9.034-9.794-.088-14.692-.191-9.08-.192-18.161-.408-27.235-.767-3.444-.137-6.893-.271-10.328-.552-.543-.044-1.084-.1-1.625-.154-.114-.012-.227-.028-.34-.041.484.053.186.038.187.024,0,.031-.448-.111-.485-.083.222-.163.517,1.375.474.163q-.012-.334-.022-.669-.025-.8-.045-1.6-.039-1.6-.055-3.2c-.106-10.1.29-20.213.811-30.3.6-11.6,1.413-23.194,2.315-34.776.858-11.013,1.8-22.019,2.774-33.023.753-8.543,1.538-17.085,2.229-25.634a121.653,121.653,0,0,0,.558-15.039c-.495-11.664-1.451-23.3-2.129-34.958-.484-8.328-.667-16.683-.913-25.021-.114-3.849-.477-7.892,0-11.729l-.586,1.415a32.766,32.766,0,0,1,5.354-3.44,22.966,22.966,0,0,1,5.305-2.448l-2.46-1.4c.107.453.171.917.238,1.377.025.169.048.339.072.509-.059-.427.019.148.03.235.056.438.112.876.165,1.315.274,2.234.525,4.472.779,6.708.458,4.035.814,8.114,1.523,12.115a2.017,2.017,0,0,0,2.46,1.4,2.045,2.045,0,0,0,1.4-2.461c-.643-3.628-1-7.687-1.447-11.643a91.239,91.239,0,0,0-1.36-10.615,2.031,2.031,0,0,0-2.46-1.4,29.442,29.442,0,0,0-7.11,3.33c-1.219.7-2.425,1.432-3.575,2.242-1.213.854-2.208,1.5-2.362,3.089-.435,4.477-.045,9.117.1,13.6.294,8.969.531,17.932,1.09,26.889.4,6.418.846,12.833,1.245,19.251.321,5.146.733,10.321.766,15.48.035,5.372-.643,10.8-1.1,16.146-.84,9.852-1.739,19.7-2.592,29.549-1.039,12-2.03,24.01-2.886,36.028-.84,11.8-1.568,23.613-1.974,35.437-.177,5.178-.292,10.36-.279,15.542.006,2.268.037,4.537.107,6.8.045,1.464-.045,3,1.249,3.988a4.387,4.387,0,0,0,2.248.755c3.06.409,6.169.508,9.25.649,4.641.213,9.285.364,13.93.5q12.492.363,24.99.575c6.881.124,13.768-.028,20.648-.158,10.349-.2,20.844-.178,31.142-1.332.792-.089,1.6-.154,2.384-.322a3.244,3.244,0,0,0,2.618-3.348c.1-1.577.122-3.164.138-4.745.04-3.993-.063-7.988-.219-11.978-.395-10.144-1.139-20.274-1.978-30.39-.937-11.315-2.024-22.618-3.181-33.913q-1.594-15.557-3.351-31.1c-.836-7.456-1.7-14.909-2.534-22.364-.222-1.975-.449-3.949-.638-5.927a95.107,95.107,0,0,1,.06-12.371c.424-11.675,1.36-23.326,1.778-35,.311-8.723.907-17.488.855-26.216,0-.716-.008-1.437-.073-2.151-.155-1.712-1.817-2.641-3.141-3.523a36.61,36.61,0,0,0-9.667-4.54,2.023,2.023,0,0,0-2.46,1.4,80.162,80.162,0,0,0-1.44,10.828c-.221,2.111-.432,4.223-.657,6.333-.094.881-.189,1.761-.294,2.64-.038.321-.077.643-.12.965.063-.472-.059.372-.081.508l1.4-1.4c-.439.07.635-.053.012,0-.213.017-.427.041-.641.058-.562.045-1.125.077-1.689.107-1.668.089-3.338.147-5.008.2-4.808.15-9.618.236-14.428.3-10.353.149-20.711.241-31.065.107-1.813-.023-3.627-.052-5.439-.121-.585-.023-1.171-.046-1.755-.093-.188-.015-.38-.049-.568-.054.386.011.523.11.164,0C261.006,125.6,259.949,129.462,262.419,130.185Z"/>
<path class="a" d="M242.712,167.17c-5.576-.677-12.357-1.412-16.288-2.078-.768,8.976-1.451,21.217-1.079,26.386A23.251,23.251,0,0,0,227,199.426c4.512,5.643,18.007,13.874,28.762,20.292l1.343.718c.95.508,4.2,1.814,4.964,2.538a47.409,47.409,0,0,0,10.1,7.5l1.3.721a5.7,5.7,0,0,1,.444-1.292c2.676-4,10.531-11.663,15.195-15.518a20.236,20.236,0,0,0-6.409-3.607c-4.625-1.6-8.7-1.4-12.985-3.137l-.763-.309c-5.32-3.022-11.834-8.525-16.23-12.095-2.966-2.079-4.182-4.584-4-11.339.067-2.41.726-9.6,1.108-15.739C248.156,167.853,245.6,167.519,242.712,167.17Z"/>
<path class="c" d="M340.7,245.74c-7.549.017-15.144.16-22.685.489a3.49,3.49,0,0,0-3.079,1.61c-.608,1.055-.435,2.409-.442,3.582-.014,2.612-.02,5.227.136,7.835a24.888,24.888,0,0,0,1.211,7.376c.981,2.554,3.014,3.675,5.571,4.4a27.93,27.93,0,0,0,21.975-3.068c2.163-1.382.159-4.846-2.019-3.454a23.976,23.976,0,0,1-16.786,3.146,15.434,15.434,0,0,1-3.632-1,4.733,4.733,0,0,1-.94-.57c-.348-.318.169.322-.088-.122-.094-.162-.185-.324-.265-.5a19.851,19.851,0,0,1-1-5.74c-.164-2.419-.18-4.846-.171-7.269a14.47,14.47,0,0,0,.011-2.6v-.194q.06-.782-.739.571c.029.02.117-.012.151,0a2.027,2.027,0,0,0,.51-.009c3.541-.07,7.081-.167,10.621-.251,3.884-.092,7.771-.223,11.657-.231,2.573-.006,2.578-4.006,0-4Z"/>
<path class="a" d="M291.063,226.178c-1.8,1.6-7.661,6.6-9.676,8.583-2.088,1.892-5.4,1.833-6.571.725a5.658,5.658,0,0,1-.9-6.343c2.846-4.251,11.553-12.655,16.048-16.208,7.18-3.433,22.144-4.371,28.214-3.89,5.746-5.129,11.351-8.629,15.881-14.071,5.022-6.035,3.854-8.132,3.369-15.495-.159-2.415-.4-6.781-.508-11.328,4.489-.8,15.234-1.841,21.627-2.781,0,.08.006.121.006.121,1.119,11.129,2.273,25.936,1.317,29.373-1.756,6.316-30.942,27.6-36.944,31.477-.366,2.184-6.149,3.458-8.526,4.254-2.254.754-4.751,1.308-7.083,1.913-2.872.746-4.2,2.136-6.086,4.5-1.543,1.941-4.027,5.1-6.314,6.029-3.3,1.335-3.953-.887-3.583-2.776a4.878,4.878,0,0,1-6.037-.629c-1.556-1.723-.222-6.167,1.389-9.223"/>
<path class="a" d="M325.741,143.642c-1.592,0-15.55-.023-20.666-.023-.009,4.5-.018,7.589-.027,12.092,2.977,0,16.7-.045,20.693-.045Z"/>
<path class="c" d="M325.741,141.642c-6.889,0-13.777-.022-20.666-.023a2.03,2.03,0,0,0-2,2q-.012,6.047-.027,12.092a2.029,2.029,0,0,0,2,2c6.9,0,13.8-.044,20.693-.045a2.029,2.029,0,0,0,2-2V143.642c0-2.574-4-2.578-4,0v12.024l2-2c-6.9,0-13.795.044-20.693.045l2,2q.012-6.047.027-12.092l-2,2c6.889,0,13.777.022,20.666.023C328.315,145.642,328.319,141.642,325.741,141.642Z"/>
<path class="c" d="M356.551,165.491c.766,7.643,1.5,15.328,1.656,23.013.026,1.328.034,2.66-.038,3.988-.025.457-.054.917-.115,1.371.067-.494-.026.124-.054.224-.037.136-.09.283-.115.421-.068.379.051-.094.031-.057-.071.133-.133.27-.206.4a9.67,9.67,0,0,1-.517.826c-.111.161-.227.318-.343.476-.2.274.193-.229-.126.158-.3.362-.6.719-.908,1.069a96.7,96.7,0,0,1-10.826,9.95c-4.294,3.545-8.7,6.946-13.179,10.259-3.343,2.476-6.695,5-10.22,7.22-2.174,1.367-.169,4.83,2.018,3.454,3.065-1.926,5.985-4.106,8.9-6.246,4.709-3.456,9.352-7.007,13.884-10.691a114.685,114.685,0,0,0,11.6-10.41,20,20,0,0,0,3.25-4.2,12.477,12.477,0,0,0,.969-5.664c.139-8.515-.817-17.1-1.665-25.563a2.056,2.056,0,0,0-2-2,2.014,2.014,0,0,0-2,2Z"/>
<path class="c" d="M334.919,168c.1,4.344.267,8.7.623,13.029.23,2.788.813,5.756-.2,8.347-1.357,3.471-4.529,6.4-7.241,8.83-3.553,3.182-7.428,5.982-11.016,9.124-1.94,1.7.9,4.519,2.828,2.829,5.705-5,12.138-9.2,16.77-15.3a14.526,14.526,0,0,0,3.124-7.133,40.866,40.866,0,0,0-.338-7.646c-.293-4.018-.455-8.049-.549-12.076-.061-2.57-4.061-2.579-4,0Z"/>
<path class="c" d="M289.191,211.963c-4.233-3.1-9.026-3.947-14.067-4.9a18.917,18.917,0,0,1-6.728-2.4c-2.039-1.277-3.992-2.692-5.908-4.147-1.9-1.444-3.755-2.947-5.6-4.455a51,51,0,0,1-4.243-3.493,6.44,6.44,0,0,1-1.608-3.3,23.309,23.309,0,0,1-.284-5.935c.233-5.111.775-10.21,1.092-15.317.159-2.571-3.842-2.561-4,0-.3,4.88-.77,9.75-1.055,14.631-.214,3.669-.295,8.033,1.814,11.235a15.589,15.589,0,0,0,3.489,3.4c1.889,1.541,3.771,3.088,5.685,4.6,3.86,3.046,7.951,6.6,12.689,8.149,2.923.955,6.007,1.2,8.99,1.9a20.651,20.651,0,0,1,7.719,3.49,2.015,2.015,0,0,0,2.737-.718,2.046,2.046,0,0,0-.718-2.736Z"/>
<path class="c" d="M273.177,228.742a45.388,45.388,0,0,1-7.83-5.478,24.489,24.489,0,0,0-2.711-2.342,23.835,23.835,0,0,0-3.073-1.53,65.291,65.291,0,0,1-6.622-3.7c-2.882-1.739-5.752-3.5-8.588-5.316-4.857-3.108-9.857-6.3-14.03-10.31-.386-.371-.763-.751-1.125-1.145a2.519,2.519,0,0,1-.671-.98,19.909,19.909,0,0,1-1.018-4.654,57.051,57.051,0,0,1-.254-7.349c.107-6.957.58-13.918,1.169-20.849.218-2.565-3.783-2.55-4,0-.551,6.478-.984,12.977-1.141,19.478a70.153,70.153,0,0,0,.1,7.366c.24,2.973.49,6.888,2.5,9.264,3.626,4.284,8.695,7.523,13.327,10.6,2.795,1.855,5.636,3.639,8.5,5.393,2.74,1.682,5.465,3.467,8.326,4.938,1.038.533,2.12.975,3.169,1.486a10.3,10.3,0,0,1,1.592.875c-.447-.327.3.309.305.313q.462.43.932.853a50.647,50.647,0,0,0,9.131,6.54c2.249,1.258,4.268-2.2,2.019-3.454Z"/>
<path class="c" d="M289.649,224.764c-1.615,1.431-3.256,2.834-4.88,4.255s-3.144,2.965-4.8,4.328a4.111,4.111,0,0,1-3,.9c-.911-.1-1.25-.571-1.51-1.565-.59-2.263,1.115-3.871,2.476-5.427a114.717,114.717,0,0,1,11.154-11,14.1,14.1,0,0,1,2.116-1.7,17.229,17.229,0,0,1,3.184-1.125,57.418,57.418,0,0,1,7.77-1.61,75.578,75.578,0,0,1,15.76-.79c2.57.171,2.56-3.83,0-4a80.4,80.4,0,0,0-16.3.859,57.292,57.292,0,0,0-8.593,1.772,22.942,22.942,0,0,0-3.721,1.386,15.478,15.478,0,0,0-2.933,2.286,102.5,102.5,0,0,0-12.4,12.442,12.147,12.147,0,0,0-2.152,3.211,7.833,7.833,0,0,0-.116,5.1c1.062,3.222,3.814,4.57,7.072,4.039,3.073-.5,5.128-3.022,7.346-4.983,2.107-1.862,4.249-3.685,6.354-5.55,1.93-1.711-.907-4.531-2.829-2.828Z"/>
<path class="c" d="M284.957,229.4c-1.506,2.919-3.293,7.117-1.883,10.385,1.532,3.548,6.269,3.879,9.267,2.2l-2.938-2.258c-.446,2.6.449,5.508,3.507,5.7,3.167.2,5.838-2.41,7.754-4.6,1.777-2.031,3.291-4.8,5.838-5.95a30.145,30.145,0,0,1,4.915-1.35c1.544-.4,3.055-.888,4.581-1.345,2.634-.788,6.179-1.491,8.016-3.724,1.623-1.972-1.191-4.818-2.828-2.828a6.712,6.712,0,0,1-3.08,1.706c-1.253.439-2.534.785-3.8,1.18-1.9.594-3.814,1.122-5.749,1.606a16.51,16.51,0,0,0-4.909,1.759c-2.693,1.689-4.326,4.541-6.45,6.825a9.247,9.247,0,0,1-3.586,2.659c.121-.044-.425.1-.418.095a1.2,1.2,0,0,1,.109.127q.122.229-.057-.087a2.6,2.6,0,0,1,.014-.712,2.028,2.028,0,0,0-2.938-2.259c-1.178.659-3.514.786-3.713-.839-.254-2.076.879-4.488,1.8-6.276,1.178-2.284-2.272-4.31-3.454-2.019Z"/>
<path class="c" d="M338.264,169.942c8-1.267,16.183-1.548,24.114-3.209,2.518-.527,1.452-4.384-1.064-3.857-7.927,1.66-16.119,1.942-24.114,3.209a2.015,2.015,0,0,0-1.4,2.46,2.05,2.05,0,0,0,2.461,1.4Z"/>
<path class="c" d="M249.535,166.085c-7.994-1.267-16.186-1.549-24.114-3.209-2.511-.526-3.585,3.329-1.063,3.857,7.93,1.661,16.118,1.942,24.114,3.209a2.063,2.063,0,0,0,2.46-1.4,2.016,2.016,0,0,0-1.4-2.46Z"/>
<path class="c" d="M287.331,77.417a12.853,12.853,0,0,0,6.188,1.442,10.17,10.17,0,0,0,6.334-1.906,2,2,0,0,0,0-2.829,2.064,2.064,0,0,0-2.829,0c.685-.533-.073.019-.293.134-.17.09-.637.23-.027.033-.171.055-.337.129-.508.185-.217.069-.436.128-.658.18a4.538,4.538,0,0,0-.765.144c.028-.069.422-.047-.015,0-.14.014-.279.025-.419.034-.337.022-.674.031-1.011.029-.3,0-.6-.012-.906-.033-.138-.009-.276-.02-.414-.034l-.237-.026q-.233-.029.156.02a3.852,3.852,0,0,1-1.328-.3c-.187-.056-.368-.122-.552-.185-.464-.159.4.193-.022,0q-.34-.162-.675-.337a2,2,0,0,0-2.019,3.453Z"/>
<path class="c" d="M292.3,63.108a27.907,27.907,0,0,1,.659,3.011l-.072-.532a1.755,1.755,0,0,1,.011.416l.072-.532a1,1,0,0,1-.046.187l.2-.478a.787.787,0,0,1-.066.121l.313-.405a.7.7,0,0,1-.1.1l.405-.313a1.875,1.875,0,0,1-.239.126l.478-.2a1.749,1.749,0,0,1-.4.117l.532-.071a1.585,1.585,0,0,1-.377,0l.531.071c-.142-.02-.282-.054-.424-.073a1.506,1.506,0,0,0-.8-.036,1.486,1.486,0,0,0-.743.237,2,2,0,0,0-.718,2.737,1.921,1.921,0,0,0,1.2.919c.364.049.717.14,1.088.157a3.559,3.559,0,0,0,1.656-.4,2.489,2.489,0,0,0,1.351-1.629,3.9,3.9,0,0,0-.015-1.7c-.164-.97-.388-1.931-.637-2.883a2,2,0,0,0-2.461-1.4,2.025,2.025,0,0,0-1.195.919,2.107,2.107,0,0,0-.2,1.542Z"/>
<path class="c" d="M276.814,54.458c-.5,1.635-.175,5.394,2.921,5.714,4.091-.025,4.309-4.57,2.932-6.707C281.539,51.716,278.223,50.988,276.814,54.458Z"/>
<path class="c" d="M309.582,54.459c.5,1.634.175,5.393-2.921,5.713-4.092-.025-4.31-4.57-2.932-6.707C304.856,51.716,308.173,50.988,309.582,54.459Z"/>
<path class="e" d="M48.7,334.842c0,1.448,0,3.585,0,6.143l119.312-.629c0-2.632,0-4.829,0-6.311,0-9.42.3-31.917.3-40.423l-.16-11.63c.123-11.864-.2-34.711-.352-48.491-12.39,0-104.576-.046-118.967-.047-.082,13.707-.226,36.654-.1,48.612L48.4,294.807C48.4,303.231,48.7,325.512,48.7,334.842Z"/>
<path class="e" d="M48.7,340.986c0,3.762,0,8.443,0,13.257l3.529-.041c38.469-.438,77.252-.457,115.789-1.149,0-4.6,0-9.058,0-12.682C127.684,340.748,88.86,340.773,48.7,340.986Z"/>
<path class="e" d="M147.686,378.863q10.331-.086,20.346-.212a.779.779,0,0,0-.011.157c0,3.006-.015,15.489-.024,26.306-36.566.016-83.586.389-119.282.406-.009-10.78-.024-23.341-.024-26.344v-.248q10.588.05,21.04.083Z"/>
<path class="a" d="M168.309,294.947c0-.406,0-.791,0-1.152,2.535.029,5.427.053,8.21.057v.2c0,9.2-.3,22.92-.3,33.12,0,8.98.01,41.95.01,48.47,0,4.619-.03,29.913-.03,41.375l-8.21,0c0-10.584.03-33.947.03-38.214,0-6.021-.01-36.47-.01-44.763C168.011,325.079,168.283,304.268,168.309,294.947Z"/>
<path class="a" d="M167.707,226.1q0-.39-.006-.746l0-.4a3.464,3.464,0,0,0,2.593,1.133h3.314a4.883,4.883,0,0,0,2.884-.742c-.066,10.76.283,42.1.413,56.788-2.938,0-5.978.012-8.754.018l0-.156C168.3,267.592,167.79,237.01,167.707,226.1Z"/>
<path class="a" d="M40.321,310.279c-.075-5.833-.15-11.541-.15-16.145,0,0,0-.1,0-.281,2.792,0,5.692-.025,8.232-.051,0,.638,0,1,0,1,0,8.424.3,30.7.3,40.035,0,8.214-.01,38.37-.01,44.334,0,4.225.03,27.366.03,37.851-2.834,0-5.642-.007-8.23-.008,0-11.462-.03-36.756-.03-41.375,0-6.52.01-39.49.01-48.47C40.471,322.073,40.4,316.114,40.321,310.279Z"/>
<path class="a" d="M48.891,226.867c0-.451.006-.874.008-1.265a5.434,5.434,0,0,1-2.448.482H43.137a3.49,3.49,0,0,1-2.746-1.3c.065,10.782-.286,42.71-.414,57.341l8.753.024v-.084C48.583,267.871,48.813,238.2,48.891,226.867Z"/>
<path class="a" d="M53.474,293.747c-4.771.051-15.319.2-21.134.025a2.04,2.04,0,0,1-1.984-2.068c.016-1.157.043-2.395.072-3.6a6.129,6.129,0,0,1,6.144-5.985c5.652.012,12.266.035,16.882.042a2.051,2.051,0,0,1,2.048,2.057v7.473A2.051,2.051,0,0,1,53.474,293.747Z"/>
<path class="a" d="M163.218,293.747c4.77.051,15.318.2,21.133.025a2.04,2.04,0,0,0,1.984-2.068c-.012-.884-.031-1.815-.051-2.743a7,7,0,0,0-7.012-6.841c-5.455.012-11.647.034-16.034.04a2.052,2.052,0,0,0-2.049,2.057v7.473A2.051,2.051,0,0,0,163.218,293.747Z"/>
<path class="a" d="M174.212,217.148a4.2,4.2,0,0,1,3.794,4.266c0,2.825-1.037,4.67-4.4,4.67h-3.314c-1.935,0-3.719-1.5-3.719-4.5,0-3.317,2.236-4.465,3.373-4.465C172.38,217.124,173.646,217.043,174.212,217.148Z"/>
<path class="a" d="M47.057,217.148a4.2,4.2,0,0,1,3.795,4.266c0,2.825-1.038,4.67-4.4,4.67H43.137c-1.935,0-3.719-1.5-3.719-4.5,0-3.317,2.237-4.465,3.373-4.465C45.225,217.124,46.491,217.043,47.057,217.148Z"/>
<path class="f" d="M112.5,431.77s21.245.1,33.42.1c6.457,0,26.657-.223,32.531-.223V417.019c-15.37,0-162.164.079-108.824.051-5.178-.014-20.267-.051-30.732-.051v14.629c5.874,0,26.074.223,32.531.223,12.175,0,41.715-.1,41.923-.1"/>
<path class="f" d="M203.428,383.231c0-9.382-.181-56.714-.181-66.175,0-3.979-1.737-9.124-6.461-9.124-4.79,0-6.76,3.034-7.1,7.177-.65,7.9-.392,63.091-.392,68.437,0,8.854-.055,54.659-.055,64.182,0,3.623,1.026,9.187,7.034,9.187,5.742,0,7.168-5.654,7.168-9.7C203.44,441.543,203.428,384.327,203.428,383.231Z"/>
<path class="f" d="M13.173,383.231c0-9.382.181-56.714.181-66.175,0-3.979,1.736-9.124,6.461-9.124,4.79,0,6.76,3.034,7.1,7.177.649,7.9.392,63.091.392,68.437,0,8.854.055,54.659.055,64.182,0,3.623-1.026,9.187-7.035,9.187-5.741,0-7.167-5.654-7.167-9.7C13.161,441.543,13.173,384.327,13.173,383.231Z"/>
<path class="c" d="M38.171,294.134c0,11.131.3,22.261.3,33.392q0,10.551,0,21.1,0,19.56,0,39.119.014,14.639.021,29.278c0,2.574,4,2.578,4,0q0-21.805-.03-43.612,0-22.087.01-44.173c0-11.7-.295-23.4-.3-35.1,0-2.574-4-2.578-4,0Z"/>
<path class="c" d="M48.837,235.459q8.08,0,16.16,0l26.9.01,30.611.011,27.191.01,17.027,0h1.054c2.574,0,2.578-4,0-4q-7.621,0-15.245,0l-26.427-.009-30.584-.012-27.605-.01-17.886,0H48.837c-2.574,0-2.578,4,0,4Z"/>
<path class="c" d="M46.9,225.6c-.093,14.879-.215,29.757-.214,44.636,0,3.944.008,7.888.048,11.832.026,2.573,4.026,2.579,4,0-.158-15.661,0-31.328.1-46.99q.032-4.738.063-9.478c.017-2.574-3.983-2.577-4,0Z"/>
<path class="c" d="M38.391,224.785c.088,15.145-.157,30.3-.3,45.44q-.056,5.883-.11,11.764c-.023,2.575,3.977,2.577,4,0,.14-15.823.328-31.646.4-47.47.015-3.244.029-6.489.01-9.734-.015-2.573-4.015-2.578-4,0Z"/>
<path class="c" d="M178.2,417.024q0-21.805.03-43.612,0-22.176-.01-44.352c0-11.67.295-23.337.3-35.006,0-2.574-4-2.578-4,0,0,11.134-.3,22.266-.3,33.4q0,10.434,0,20.867,0,19.713,0,39.426-.014,14.639-.021,29.278c0,2.574,4,2.578,4,0Z"/>
<path class="c" d="M48.872,343.008c30.818-.187,61.638-.232,92.456-.445q13.093-.091,26.185-.228c2.573-.027,2.579-4.027,0-4-30.846.329-61.7.409-92.543.541q-13.048.056-26.1.132c-2.573.016-2.579,4.016,0,4Z"/>
<path class="c" d="M48.948,356.238c30.906-.369,61.815-.45,92.721-.8q13.137-.151,26.273-.38c2.571-.046,2.579-4.046,0-4-30.92.553-61.846.676-92.769.927q-13.113.107-26.225.257c-2.572.03-2.579,4.03,0,4Z"/>
<path class="c" d="M147.686,380.863q10.128-.084,20.254-.211c2.572-.033,2.579-4.033,0-4q-10.127.129-20.254.211c-2.573.021-2.579,4.021,0,4Z"/>
<path class="c" d="M48.762,380.927q10.485.051,20.969.084c2.574.007,2.578-3.992,0-4q-10.485-.033-20.969-.084c-2.574-.012-2.578,3.988,0,4Z"/>
<path class="c" d="M49,407.52q22.633,0,45.265-.137,24.144-.114,48.287-.22,12.561-.043,25.123-.05c2.573,0,2.578-4,0-4q-22.965,0-45.929.137-24.05.112-48.1.22-12.322.043-24.646.05c-2.573,0-2.578,4,0,4Z"/>
<path class="c" d="M46.4,294.807c0,16.329.3,32.656.3,48.986q-.006,21.355,0,42.711.015,15.265.024,30.53c0,2.574,4,2.578,4,0q0-22.192-.029-44.386c0-15.657.086-31.315-.039-46.971-.083-10.29-.249-20.58-.252-30.87,0-2.574-4-2.578-4,0Z"/>
<path class="c" d="M169.991,417.024q0-22.355.029-44.709c0-15.814-.087-31.63.039-47.444.082-10.416.249-20.833.252-31.249,0-2.574-4-2.578-4,0,0,16.533-.3,33.066-.3,49.6q.006,21.551,0,43.1-.015,15.351-.024,30.7c0,2.574,4,2.578,4,0Z"/>
<path class="c" d="M165.7,225.351c.1,14.955.393,29.908.463,44.864.018,3.925.026,7.852-.013,11.777-.026,2.575,3.974,2.577,4,0,.158-15.733-.16-31.474-.351-47.206-.038-3.145-.078-6.29-.1-9.435-.016-2.573-4.016-2.578-4,0Z"/>
<path class="c" d="M174.49,225.351c-.088,15,.156,30.007.3,45.007q.057,5.882.111,11.762c.023,2.572,4.023,2.579,4,0-.138-15.681-.327-31.361-.4-47.042-.016-3.242-.029-6.485-.01-9.727.015-2.574-3.985-2.577-4,0Z"/>
<path class="c" d="M53.474,291.747c-4.074.044-8.148.093-12.222.1-2.177,0-4.353,0-6.53-.029q-.767-.01-1.534-.028c-.205,0-.87-.077-.762,0-.249-.18.026.111-.059-.036a4.129,4.129,0,0,1,0-.936c.013-.756.027-1.511.047-2.267a4.3,4.3,0,0,1,2.713-4.19,8.264,8.264,0,0,1,2.946-.245l4.21.011q4.09.012,8.182.022l1.729,0c.243,0,1.219-.02,1.19-.041.18.133.04-.131.115.126a2.081,2.081,0,0,1,0,.46c.035,1.49,0,2.985,0,4.475,0,.675.011,1.351,0,2.026a1.875,1.875,0,0,1,0,.443c-.057.19-.06.1-.028.1a2.054,2.054,0,0,0-2,2,2.015,2.015,0,0,0,2,2c2.658-.242,4.028-2.143,4.028-4.681v-5.129c0-1.857.048-3.691-1.625-4.95-1.26-.948-2.748-.828-4.242-.831l-4.922-.011c-3.375-.01-6.767-.122-10.141-.027a8.3,8.3,0,0,0-7.01,3.987,8.587,8.587,0,0,0-1.134,4c-.087,1.592-.355,3.559.21,5.066,1.121,2.987,4.453,2.638,7.067,2.665,5.923.062,11.846-.023,17.769-.087C56.046,295.719,56.053,291.719,53.474,291.747Z"/>
<path class="c" d="M163.218,295.747c5.231.056,10.463.124,15.694.1,1.23,0,2.459-.015,3.687-.037,1.459-.026,2.931.048,4.149-.89,1.358-1.044,1.6-2.5,1.573-4.115a14.277,14.277,0,0,0-.55-4.676,9.154,9.154,0,0,0-5.659-5.556,12.511,12.511,0,0,0-4.145-.452l-5.566.015c-3.124.009-6.385-.244-9.5.049-2.5.235-3.715,2.338-3.715,4.654v5.728a9.265,9.265,0,0,0,.1,1.984,4.156,4.156,0,0,0,3.931,3.194,2.015,2.015,0,0,0,2-2,2.043,2.043,0,0,0-2-2c.037,0,.015.074-.029-.068a1.432,1.432,0,0,1,0-.245c-.054-.549,0-1.13,0-1.681v-4.32a4.836,4.836,0,0,1,0-1.147c.028-.1.093-.192.013-.109.128-.133.113-.054.036-.017a3.341,3.341,0,0,1,1.071,0q3.934-.007,7.87-.019l4.019-.012a24.788,24.788,0,0,1,3.893.048,5.071,5.071,0,0,1,3.823,3.019,8.407,8.407,0,0,1,.4,3.155c.006.276.025,1.4.042,1.382-.02.023-.2.13,0,.041a3.47,3.47,0,0,1-.848.022c-2.133.049-4.266.058-6.4.059-4.629,0-9.258-.056-13.886-.106C160.643,291.719,160.641,295.719,163.218,295.747Z"/>
<path class="c" d="M173.68,219.076a9.305,9.305,0,0,1,1,.269c.482.153-.323-.206.088.045.122.075.252.137.373.215l.115.076q.266.192-.086-.068c.022-.013.258.239.281.262.065.067.164.235.244.277-.188-.248-.223-.287-.1-.116.032.049.063.1.092.149.048.082.087.17.137.251.213.34-.129-.45-.024-.07.056.2.122.408.177.614.078.288-.093.248,0-.132a1.253,1.253,0,0,0,.026.289,6.946,6.946,0,0,1,0,.777c0,.115-.012.23-.022.344l-.013.134c-.026.224-.02.177.02-.14-.091.075-.125.594-.165.726a1.957,1.957,0,0,0-.116.335c.025-.389.155-.293.012-.064-.057.091-.125.191-.172.286-.12.169-.082.123.115-.141-.047.057-.1.111-.147.164a1.781,1.781,0,0,0-.159.153c-.246.3.39-.232.049-.038-.1.057-.2.117-.3.177-.358.22.443-.133.027,0-.261.081-.518.148-.785.208-.479.106.449-.01-.067,0-.221.007-.441.024-.663.026-.73.007-1.461,0-2.192,0H170.7c-.177,0-.355,0-.531,0-.349-.014-.188-.142.044.023a2.737,2.737,0,0,0-.7-.2c.273-.028.332.159.037-.01-.071-.041-.141-.084-.21-.13q-.258-.183.106.087c.023-.044-.471-.371-.452-.458l.151.193q-.078-.111-.15-.228c-.074-.121-.132-.248-.2-.372.242.436.022.046-.018-.076-.049-.15-.09-.3-.125-.458-.018-.079-.085-.613-.038-.135-.024-.244-.038-.488-.038-.733,0-.181.016-.361.021-.542,0-.106.074-.378-.011.029.063-.3.139-.59.224-.887.129-.451-.212.361.013-.03.064-.112.12-.228.189-.339.154-.248.263-.167-.031.007.11-.065.215-.248.309-.339.029-.028.206-.224.245-.218,0,0-.435.277-.069.071.084-.048.171-.1.254-.148.421-.255-.348.091-.059.017.081-.021.16-.054.241-.075.474-.125-.144-.022-.156,0,.05-.1.942-.013,1.062-.014.7,0,1.4-.02,2.1-.025.248,0,.5,0,.743,0,.081,0,.163.009.244.011.443.012-.487-.081-.213-.035a2.049,2.049,0,0,0,2.46-1.4,2.024,2.024,0,0,0-1.4-2.46,22.806,22.806,0,0,0-3.938-.1,5.825,5.825,0,0,0-3.816,1.1,6.265,6.265,0,0,0-2.323,4.222,7.331,7.331,0,0,0,1.1,5.276,5.632,5.632,0,0,0,4.4,2.364c.942.035,1.894,0,2.837,0a7.511,7.511,0,0,0,4.8-1.246,5.6,5.6,0,0,0,2.053-3.651,7.7,7.7,0,0,0-.6-4.821,6.411,6.411,0,0,0-4.508-3.147,2,2,0,0,0-1.063,3.857Z"/>
<path class="c" d="M46.525,219.076a9.386,9.386,0,0,1,1,.269c.481.153-.323-.206.087.045.123.075.252.137.373.215l.115.076q.265.192-.085-.068c.021-.013.258.239.28.262.065.067.164.235.244.277-.188-.248-.223-.287-.1-.116.032.049.063.1.092.149.049.082.087.17.138.251.212.34-.13-.45-.025-.07.057.2.122.408.178.614.078.288-.094.248-.005-.132a1.375,1.375,0,0,0,.026.289,7.194,7.194,0,0,1,0,.777c-.006.115-.013.23-.023.344l-.013.134q-.039.336.02-.14c-.09.075-.125.594-.165.726a1.87,1.87,0,0,0-.115.335c.024-.389.154-.293.011-.064-.057.091-.125.191-.172.286-.12.169-.081.123.115-.141-.047.057-.1.111-.147.164a1.927,1.927,0,0,0-.159.153c-.246.3.391-.232.049-.038-.1.057-.2.117-.3.177-.358.22.444-.133.027,0-.261.081-.517.148-.784.208-.479.106.448-.01-.068,0-.221.007-.441.024-.663.026-.73.007-1.461,0-2.191,0h-.715c-.177,0-.354,0-.531,0-.349-.014-.188-.142.045.023a2.756,2.756,0,0,0-.7-.2c.274-.028.332.159.037-.01-.071-.041-.141-.084-.209-.13q-.258-.183.105.087c.023-.044-.471-.371-.451-.458l.151.193q-.079-.111-.15-.228c-.074-.121-.133-.248-.2-.372.243.436.022.046-.018-.076-.049-.15-.09-.3-.125-.458-.018-.079-.084-.613-.038-.135-.024-.244-.038-.488-.038-.733,0-.181.016-.361.021-.542,0-.106.074-.378-.011.029.063-.3.14-.59.224-.887.129-.451-.211.361.013-.03.065-.112.12-.228.189-.339.154-.248.264-.167-.031.007.11-.065.215-.248.31-.339.029-.028.2-.224.244-.218,0,0-.435.277-.069.071.085-.048.171-.1.255-.148.421-.255-.349.091-.06.017.081-.021.16-.054.242-.075.473-.125-.145-.022-.157,0,.051-.1.942-.013,1.062-.014.7,0,1.4-.02,2.1-.025.247,0,.495,0,.742,0,.082,0,.163.009.245.011.443.012-.488-.081-.214-.035a2.051,2.051,0,0,0,2.461-1.4,2.025,2.025,0,0,0-1.4-2.46,22.82,22.82,0,0,0-3.939-.1,5.825,5.825,0,0,0-3.816,1.1,6.269,6.269,0,0,0-2.323,4.222,7.331,7.331,0,0,0,1.1,5.276,5.632,5.632,0,0,0,4.4,2.364c.943.035,1.894,0,2.838,0a7.508,7.508,0,0,0,4.8-1.246,5.6,5.6,0,0,0,2.053-3.651,7.7,7.7,0,0,0-.6-4.821,6.411,6.411,0,0,0-4.507-3.147,2,2,0,1,0-1.064,3.857Z"/>
<path class="c" d="M112.5,433.77c17.282.082,34.562.119,51.844-.027,4.7-.04,9.405-.094,14.107-.095a2.03,2.03,0,0,0,2-2V417.019a2.029,2.029,0,0,0-2-2q-8.48,0-16.96.006l-29.563.013-33,.017-27.564.014c-4.379,0-8.8-.173-13.175.007-.059,0-.118,0-.177,0-2.572.035-2.58,4,0,4,2.306,0,4.612,0,6.918,0l4.7,0c2.573,0,2.577-3.992,0-4q-15.366-.042-30.732-.051a2.028,2.028,0,0,0-2,2v14.629a2.03,2.03,0,0,0,2,2c10.556,0,21.113.2,31.67.222,10.945.025,21.89-.036,32.835-.069,3.316-.01,6.633-.026,9.949-.031,2.574,0,2.578-4,0-4-8.389.013-16.778.053-25.168.073q-15.81.039-31.619-.07c-5.889-.05-11.778-.124-17.667-.125l2,2V417.019l-2,2q15.366,0,30.732.051v-4l-11.087.006h-.529v4c3.586-.048,7.175,0,10.761-.006l26.375-.013,32.821-.017,30.376-.014q9.5,0,19-.007h1.1l-2-2v14.629l2-2c-18.864,0-37.723.236-56.589.162q-4.682-.018-9.362-.04c-2.575-.012-2.578,3.988,0,4Z"/>
<path class="c" d="M106.351,426.955v3.491a2.064,2.064,0,0,0,.586,1.415,2,2,0,0,0,2.828,0,2.083,2.083,0,0,0,.586-1.415v-3.491a2.062,2.062,0,0,0-.586-1.414,2,2,0,0,0-2.828,0,2.078,2.078,0,0,0-.586,1.414Z"/>
<path class="c" d="M212.051,329.243V366.43q0,21.765.227,43.53c.075,8.134.071,16.278.322,24.409.079,2.568,4.079,2.579,4,0-.525-17.023-.431-34.086-.517-51.115-.062-12.411-.032-24.822-.032-37.233V329.243c0-2.574-4-2.578-4,0Z"/>
<path class="c" d="M205.428,383.231c0-10.869-.055-21.739-.089-32.608q-.054-16.627-.092-33.255c-.01-3.363-.82-7.248-3.482-9.559a8.7,8.7,0,0,0-11.033.179c-3.533,3.054-3.168,8.431-3.264,12.7-.262,11.666-.226,23.343-.226,35.012,0,9.17.041,18.341.051,27.511.011,10.426-.016,20.852-.027,31.278-.011,11.08-.113,22.163-.028,33.242.023,3.1.646,6.478,2.883,8.788a8.972,8.972,0,0,0,10.645,1.215c4.479-2.749,4.674-8.3,4.673-12.983q0-15.289,0-30.58l-.006-29.071v-1.866c0-2.573-4-2.578-4,0q0,10.482,0,20.962l.006,33.576c0,3.067.012,6.133,0,9.2-.008,2.318-.3,5.078-2.044,6.793a4.725,4.725,0,0,1-7.043-.872c-1.146-1.934-1.116-4.128-1.115-6.341q0-2.94,0-5.878.007-8.842.017-17.685.016-17.874.033-35.748c0-7.13-.028-14.26-.04-21.39-.019-12.1-.029-24.2.087-36.3.04-4.172.067-8.349.239-12.518.076-1.836.108-3.861,1.221-5.411a4.448,4.448,0,0,1,7.033.019c1.406,2.086,1.414,4.6,1.417,7.016q0,2.986.012,5.973.023,8.758.052,17.517.057,18.2.109,36.4.006,2.344.007,4.688C201.428,385.805,205.428,385.81,205.428,383.231Z"/>
<path class="c" d="M.55,329.243V366.43q0,21.765-.227,43.53C.248,418.094.252,426.238,0,434.369c-.079,2.575,3.921,2.572,4,0,.525-17.023.43-34.086.516-51.115.063-12.411.033-24.822.033-37.233V329.243c0-2.574-4-2.578-4,0Z"/>
<path class="c" d="M15.173,383.231c0-10.42.051-20.84.085-31.26q.053-16.726.1-33.452c0-2.441.033-5.077,1.579-7.121,1.726-2.283,5.682-1.842,7.088.57a10.951,10.951,0,0,1,1.008,5.182c.072,1.778.109,3.557.141,5.336.211,11.57.192,23.145.189,34.717,0,8.679-.041,17.357-.05,26.036-.01,9.967.015,19.933.025,29.9q.018,16.77.03,33.54c0,2.236.016,4.508-1.247,6.425a4.743,4.743,0,0,1-7.1.468c-2.392-2.62-1.858-6.877-1.857-10.185q0-15.336,0-30.672L15.173,385v-1.77c0-2.573-4-2.578-4,0q0,11.048,0,22.093,0,17.125-.007,34.251a89.492,89.492,0,0,0,.095,9.453c.366,3.409,1.627,7.087,4.815,8.841,3.282,1.806,8.031,1.326,10.579-1.538,3.386-3.806,2.713-9.414,2.71-14.141q-.007-8.8-.016-17.6-.019-18.636-.036-37.271c0-7.534.031-15.068.042-22.6.018-12.416.032-24.834-.11-37.249-.044-3.87-.047-7.753-.274-11.618-.174-2.964-.886-6.082-3.31-8.036-3.105-2.5-8.082-2.614-11.031.182-3.976,3.769-3.27,9.914-3.281,14.9q-.021,8.822-.051,17.643-.06,18.909-.114,37.817-.006,2.436-.007,4.871C11.173,385.805,15.173,385.81,15.173,383.231Z"/>
<path class="a" d="M100.059,393.454c-.017-.27-.034-.5-.051-.659,0,0-.021-.212-.05-.533-5.329.2-13.208.163-18.277.1,0,1.05-.155,2.5-.216,3.072a24.343,24.343,0,0,1-.542,3.321,6.344,6.344,0,0,1-1.077,1.946l.025.408A9.19,9.19,0,0,1,81,400.369c2.931-1.64,8.832-1.4,12.249-1.4a11.327,11.327,0,0,1,5.943,1.644,9,9,0,0,1,1.1.787v-1.629C100.286,398.83,100.17,395.205,100.059,393.454Z"/>
<path class="a" d="M118.518,394.535a7.44,7.44,0,0,1,.179-2c5.455.04,13.239-.193,18.249-.38,0,.093.008.145.008.145,0,1.055.154,2.551.217,3.131a24.355,24.355,0,0,0,.541,3.321,6.366,6.366,0,0,0,1.078,1.946l-.03.4a9.26,9.26,0,0,0-1.119-.737c-2.932-1.64-8.832-1.4-12.25-1.4a11.326,11.326,0,0,0-5.942,1.644,9.1,9.1,0,0,0-1.1.787v-1.629C118.349,399,118.428,396.4,118.518,394.535Z"/>
<path class="a" d="M86.082,423.447a24.309,24.309,0,0,1-5.514-1.219c-6.055-2.162-9.29-6.553-8.235-10.609a14.569,14.569,0,0,1,2.454-4.566q1.29-1.8,2.736-3.56A12.012,12.012,0,0,1,81,400.369c2.931-1.64,8.832-1.4,12.249-1.4a11.327,11.327,0,0,1,5.943,1.644,13.31,13.31,0,0,1,3.182,2.92c2.913,3.37,5.909,7.077,4.521,10.755a10.4,10.4,0,0,1-1.788,2.817,16.322,16.322,0,0,1-4.761,4.077C96.63,423.235,91.131,424,86.082,423.447Z"/>
<path class="a" d="M132.554,423.447a24.309,24.309,0,0,0,5.514-1.219c6.054-2.162,9.29-6.553,8.235-10.609a14.552,14.552,0,0,0-2.455-4.566q-1.288-1.8-2.736-3.56a12.008,12.008,0,0,0-3.471-3.124c-2.932-1.64-8.832-1.4-12.25-1.4a11.326,11.326,0,0,0-5.942,1.644,13.291,13.291,0,0,0-3.182,2.92c-2.913,3.37-5.909,7.077-4.521,10.755a10.4,10.4,0,0,0,1.788,2.817,16.322,16.322,0,0,0,4.761,4.077C122.005,423.235,127.505,424,132.554,423.447Z"/>
<path class="a" d="M124.28,301.083c-3.562.265-9.439,1.426-11.936,5.857a23.407,23.407,0,0,0-2.685,10.863c.027,8.616,1.329,42.569,1.583,47.869.39,8.137.985,18.535,1.195,26.386,1.046,1.1,26.457.012,28.207-.108,2.368-.161,2.793-1.492,3.206-4.025.905-5.545,4.648-46.211,3.723-57.549-.623-7.635-.114-15.109-5.064-22.167C139.319,303.661,135.86,300.224,124.28,301.083Z"/>
<path class="a" d="M91.718,300.985c3.5.176,9.306,1.191,11.869,5.559a23.754,23.754,0,0,1,2.909,10.794c.188,8.613-.242,42.588-.359,47.893-.179,8.144-.5,18.553-.513,26.407-1,1.121-25.913.716-27.635.64-2.33-.1-2.781-1.422-3.25-3.944-1.027-5.521-5.79-46.132-5.165-57.489.42-7.648-.266-15.108,4.419-22.286C77.013,303.934,80.324,300.412,91.718,300.985Z"/>
<path class="c" d="M79.681,392.3c0,.708-.054,1.414-.116,2.118q-.039.435-.085.87-.024.23-.051.459c-.012.105-.024.21-.037.315-.008.061-.065.51-.025.2.036-.276-.01.068-.018.12-.015.1-.03.2-.046.3-.03.193-.062.386-.1.578a8.938,8.938,0,0,1-.237,1.049,1.076,1.076,0,0,0-.071.2c.006-.075.189-.407.061-.158-.076.147-.149.3-.231.439s-.184.311-.285.461c-.04.059-.088.117-.124.179-.119.2.325-.4.113-.151a2,2,0,1,0,2.829,2.829,8.883,8.883,0,0,0,1.451-2.431,10.094,10.094,0,0,0,.517-2.385,37.178,37.178,0,0,0,.453-5,2,2,0,0,0-4,0Z"/>
<path class="c" d="M98.008,392.8c.115,1.175.141,2.363.185,3.542.043,1.145.092,2.292.093,3.438a2,2,0,0,0,4,0c0-1.146-.05-2.293-.093-3.438-.044-1.179-.07-2.367-.185-3.542a2.152,2.152,0,0,0-.586-1.414,2,2,0,0,0-3.414,1.414Z"/>
<path class="c" d="M86.082,421.447a18.936,18.936,0,0,1-8.418-2.894,7.557,7.557,0,0,1-3.486-4.74c-.391-2.541,1.712-4.938,3.124-6.827,1.464-1.957,3.124-4.464,5.562-5.255a24.6,24.6,0,0,1,7.524-.771c2.457,0,4.946-.14,7.188,1.043,2.537,1.338,4.638,4.14,6.173,6.5a8.058,8.058,0,0,1,1.479,3.5,5.184,5.184,0,0,1-1.54,3.686c-4.315,5.307-11.1,6.409-17.606,5.752a2.013,2.013,0,0,0-2,2,2.044,2.044,0,0,0,2,2c7.1.718,14.9-.7,19.839-6.231,2.512-2.811,4.172-6.047,2.757-9.822a19.232,19.232,0,0,0-3.116-5.139,30.092,30.092,0,0,0-3.622-4.065,14.08,14.08,0,0,0-9.573-3.221,42.233,42.233,0,0,0-9.478.614c-3.428.766-5.676,3.06-7.773,5.733-2.188,2.79-4.868,5.939-4.978,9.664-.094,3.2,1.812,6.134,4.228,8.074a22.435,22.435,0,0,0,11.716,4.393,2.012,2.012,0,0,0,2-2A2.048,2.048,0,0,0,86.082,421.447Z"/>
<path class="c" d="M134.954,392.3a37.179,37.179,0,0,0,.454,5,10.288,10.288,0,0,0,.5,2.332,8.753,8.753,0,0,0,1.472,2.484,2.009,2.009,0,0,0,2.828,0,2.053,2.053,0,0,0,0-2.829c-.161-.191.136.176.144.193a1.481,1.481,0,0,0-.123-.174q-.15-.222-.285-.455c-.083-.143-.162-.289-.235-.437-.03-.062-.147-.331-.022-.03s.021.049,0-.017c-.1-.339-.176-.681-.241-1.028q-.054-.286-.1-.573c-.016-.1-.031-.2-.046-.3-.009-.061-.071-.5-.029-.2.038.278-.009-.074-.015-.125-.013-.1-.026-.21-.038-.315-.02-.167-.038-.334-.056-.5-.03-.282-.058-.565-.084-.847-.065-.725-.118-1.451-.122-2.179a2,2,0,0,0-4,0Z"/>
<path class="c" d="M116.628,392.8c-.115,1.175-.142,2.363-.186,3.542-.042,1.145-.091,2.292-.093,3.438a2,2,0,0,0,4,0c0-1.146.051-2.293.093-3.438.044-1.179.071-2.367.186-3.542a2.006,2.006,0,0,0-.586-1.414,2,2,0,0,0-2.829,0,2.271,2.271,0,0,0-.585,1.414Z"/>
<path class="c" d="M132.554,425.447c6.115-.713,14.253-3.546,15.732-10.435.74-3.446-.875-6.425-2.84-9.148-2.091-2.9-4.35-6.263-7.774-7.673-2.816-1.16-6.07-1.213-9.073-1.23-3.382-.019-6.659,0-9.711,1.672a14.518,14.518,0,0,0-3.913,3.349,39.815,39.815,0,0,0-3.66,4.691c-2.095,3.3-2.649,7.083-.3,10.414a18.876,18.876,0,0,0,9.1,7.076,28.743,28.743,0,0,0,12.44,1.284,2.057,2.057,0,0,0,2-2,2.014,2.014,0,0,0-2-2c-5.531.559-11.929-.046-16.1-4.109-1.982-1.929-3.785-4.121-2.6-6.967a22.414,22.414,0,0,1,5.385-7.087c2.066-1.93,4.636-2.3,7.348-2.317a42.849,42.849,0,0,1,7.27.311c2.76.459,4.4,1.842,6.136,3.982.929,1.146,1.823,2.325,2.656,3.544a9.229,9.229,0,0,1,1.848,3.889c.243,2.127-1.226,4.036-2.776,5.31a17.662,17.662,0,0,1-9.16,3.444,2.062,2.062,0,0,0-2,2A2.012,2.012,0,0,0,132.554,425.447Z"/>
<path class="c" d="M124.28,299.083c-4.757.375-9.913,1.757-12.921,5.742-3.061,4.055-3.754,9.657-3.685,14.585.107,7.658.4,15.315.67,22.969.254,7.227.516,14.455.826,21.68.2,4.681.464,9.358.694,14.037.158,3.213.309,6.427.431,9.642.052,1.376.052,2.759.137,4.132a2.287,2.287,0,0,0,1.706,2.235c2.286.7,5.1.437,7.454.438,3.743,0,7.486-.09,11.226-.2,2.93-.09,5.86-.193,8.788-.333a7.74,7.74,0,0,0,3.647-.753c1.806-1.061,2.285-3.173,2.572-5.093.9-6.007,1.147-12.151,1.553-18.2.592-8.81,1.091-17.63,1.411-26.454.13-3.586.236-7.174.234-10.763a129.649,129.649,0,0,0-.437-13.33c-.935-8.92-6.293-18.421-15.785-20.035a35.84,35.84,0,0,0-8.521-.29c-2.553.179-2.573,4.18,0,4,4.9-.343,10.5-.209,14.056,3.2,4.054,3.88,6.094,9.461,6.411,15.193a278.714,278.714,0,0,1-.209,28.1q-.678,14.815-1.831,29.607c-.137,1.726-.281,3.452-.447,5.175q-.089.938-.191,1.872c-.026.231-.054.462-.08.694-.079.678.056-.263-.027.212a7.21,7.21,0,0,1-.626,2.566c.044-.056-.251.2-.085.1a2.051,2.051,0,0,1-.56.147c-.129.019-.264.014-.4.024-1.166.087-2.342.109-3.51.156-4.242.17-8.487.305-12.732.376a93.2,93.2,0,0,1-10.545-.169c.6.058.1-.054-.113-.033-.07.007-.155-.072-.222-.062.154-.023.533.276.677.405l.586,1.414c-.357-13.04-1.214-26.066-1.707-39.1-.431-11.41-.948-22.833-1.065-34.252-.039-3.846.527-8.6,3.043-11.708,2.228-2.749,6.213-3.647,9.572-3.912C126.829,302.882,126.851,298.881,124.28,299.083Z"/>
<path class="c" d="M91.718,302.985c2.977.164,6.322.8,8.646,2.8,2.943,2.537,3.966,7.463,4.119,11.165.2,4.76.063,9.552.036,14.315-.061,11-.161,21.992-.362,32.985-.168,9.13-.516,18.256-.533,27.388l.586-1.414s.521-.383.274-.226c.134-.085.531-.117.251-.122a2.918,2.918,0,0,0-.561.117c-.388.085.234-.025.077-.007-.131.016-.262.032-.393.045q-.494.05-.987.087c-1.765.133-3.537.182-5.306.221-4.229.094-8.462.086-12.692.049q-2.463-.021-4.927-.064a7.691,7.691,0,0,1-2.529-.159,1.1,1.1,0,0,1-.307-.5,10.238,10.238,0,0,1-.449-1.9c-.072-.395-.132-.793-.19-1.19-.037-.253-.071-.506-.106-.759.075.545-.056-.434-.084-.654q-.141-1.108-.27-2.22c-1.089-9.255-1.949-18.54-2.753-27.824-.8-9.247-1.829-18.584-1.543-27.87a53.5,53.5,0,0,1,.974-10.48,23.559,23.559,0,0,1,3.9-8.48,12.9,12.9,0,0,1,3.513-3.389,14.845,14.845,0,0,1,6.494-1.868,40.293,40.293,0,0,1,5.119-.046c2.573.118,2.567-3.882,0-4-4.712-.216-9.954.029-14.023,2.708-3.49,2.3-5.984,6.156-7.555,9.946-2.362,5.7-2.252,11.882-2.5,17.933a95.984,95.984,0,0,0,.439,10.488c.6,8.757,1.368,17.5,2.2,26.239.66,6.91,1.3,13.837,2.249,20.715a26.873,26.873,0,0,0,.564,3.162,5.043,5.043,0,0,0,4.9,4.1c2.057.132,4.141.084,6.2.1,3.669.036,7.34.046,11.009,0a86.178,86.178,0,0,0,8.99-.386,4.621,4.621,0,0,0,2.837-.931c.955-.953.6-2.879.612-4.131q.021-2.27.061-4.539c.106-6.259.29-12.515.43-18.773.136-6.111.187-12.224.253-18.336.089-8.15.172-16.3.16-24.452a48.03,48.03,0,0,0-.743-10.845,19.153,19.153,0,0,0-3.573-7.967,13.628,13.628,0,0,0-6.294-3.967,24.214,24.214,0,0,0-6.214-1.068C89.146,298.843,89.153,302.844,91.718,302.985Z"/>
<path class="c" d="M152.241,311.863c1.616,4.918,3.095,9.942,3.188,15.156.078,4.4-2.6,7.356-5.915,9.85a2.063,2.063,0,0,0-.718,2.736,2.014,2.014,0,0,0,2.737.717c4.039-3.039,7.7-6.819,7.9-12.208.22-5.895-1.515-11.779-3.333-17.314-.8-2.435-4.663-1.392-3.857,1.063Z"/>
<path class="c" d="M60.817,312.747c-1.727,4.977-3.188,10.167-3.043,15.5.143,5.3,3.944,9.113,7.887,12.079a2.012,2.012,0,0,0,2.736-.717,2.048,2.048,0,0,0-.718-2.736c-3.377-2.541-6.063-5.536-5.86-10.015a45.616,45.616,0,0,1,2.855-13.043c.845-2.437-3.017-3.485-3.857-1.064Z"/>
<path class="a" d="M129.689,295.554a15.594,15.594,0,0,1-4.357,2.032c-2.474.628-5.036.756-7.489,1.414-2.866.765-4.78.716-7.146,3.042-2.5,2.464-3.5,5.467-1.963,8.628,1.345,2.768,3.985,8.8,6.92,7.626,4.024-1.256,8.176-3.092,10.463-3.229,4.632-.285,10.345.432,13.034-4.7a14.111,14.111,0,0,1,2.474-3.219Z"/>
<path class="a" d="M85.371,295.481c.991.717,4.9,1.551,6.144,1.816,2.817.608,5.713.716,8.51,1.354,3.259.746,5.418.678,8.137,2.984,2.875,2.444,5.388,5.1,8.019,7.764,1.442,1.453,3.081,2.395,3.445,4.9.1.677-1.983,4.907-5.9,5.918-3.632.933-8.863-1.384-9.717-1.894,1.129,1.482-.1,2.925-1.7,2.895s-2.954-1.3-4.073-2.267c-1.983-1.727-4.751-4.044-7.332-4.162-5.251-.245-11.71.521-14.841-4.593a26.246,26.246,0,0,0-2.394-3.249Z"/>
<path class="c" d="M111.391,311.919c-2.04-2.04-4.327-3.819-6.41-5.814a2,2,0,1,0-2.829,2.828c2.083,2,4.371,3.775,6.411,5.814a2,2,0,0,0,2.828-2.828Z"/>
<path class="a" d="M92.134,219.886c-1-.366-1.96-.753-2.888-1.153.788,9.855,2.367,29.524,2.759,49.909.19,9.9-.07,19.835-.43,28.657,2.8.6,5.67.7,8.45,1.34,3.26.75,5.42.68,8.13,2.99q.827.7,1.614,1.428a11.566,11.566,0,0,1,.926-1.025c2.365-2.326,4.279-2.277,7.145-3.043,2.454-.657,5.016-.785,7.489-1.413a13.929,13.929,0,0,0,1.716-.612c-.127-2.47-.24-4.656-.24-4.656-.26-7.5-.41-15.591-.25-23.666.394-20.193,1.948-39.686,2.753-49.623a59.984,59.984,0,0,1-20.349,4.073A49.78,49.78,0,0,1,92.134,219.886Z"/>
<path class="a" d="M137.491,171.57a4.225,4.225,0,0,1,3.381-.989,3.987,3.987,0,0,1,2.868,1.907,5.642,5.642,0,0,1,.591,2.269,16.9,16.9,0,0,1-1.724,8.959,10.73,10.73,0,0,1-2.778,3.646,7.111,7.111,0,0,1-3.312,1.493l-.561.086c-.277,1.019-.583,1.876-.733,2.331-.985,2.675-6.6,12.079-13.606,15.191.07.547.16,1.1.26,1.646.34,1.97.23,3.73,2.97,4.71.18.07,4.44,1.8,4.72,1.92,0,0,.283,19.341-21.05,19.341s-19.66-19.561-19.66-19.561c.53-.18,3.92-1.63,4.1-1.7,2.73-.98,2.63-2.74,2.97-4.71.11-.639.21-1.278.29-1.917a24.876,24.876,0,0,1-7.893-6.478,28.8,28.8,0,0,1-5.481-10.694l-1.077-.165a7.12,7.12,0,0,1-3.312-1.493,10.742,10.742,0,0,1-2.778-3.646,16.9,16.9,0,0,1-1.723-8.959,5.641,5.641,0,0,1,.59-2.269,3.989,3.989,0,0,1,2.869-1.907,4.223,4.223,0,0,1,3.38.989s-2.5-27.712,29.058-27.712S137.491,171.57,137.491,171.57Z"/>
<path class="g" d="M102.746,125.235c4.081-1.518,10.391-.734,15.291,1.44a16.511,16.511,0,0,1,5.163,3.413l5.323,2.558a14.92,14.92,0,0,1,6.7,4.105c7.054,7.2,10.3,21.777,7.223,34.41a4.164,4.164,0,0,0-1.574-.58,4.225,4.225,0,0,0-3.381.989l-1.727-5.055a27.549,27.549,0,0,0-8.214-17.7l-5.575-2.579c-1.871,2.358-7.2,6.8-14.908,8.284a49.828,49.828,0,0,1-7.989-.155c-1.054.517-2.154.957-3.183,1.375a33.415,33.415,0,0,1-6.912,1.793,17.293,17.293,0,0,0-4.213,6.024c-.624,1.228-.926,2.259-1.329,3.25l-2.649,4.761a4.223,4.223,0,0,0-3.38-.989,4.059,4.059,0,0,0-1.488.533c-1.847-5.788-1.644-11.36-1.287-15.947.7-8.988,4.026-15.092,7.185-17.9,2.991-3.627,11.732-10.146,20.92-12.03Z"/>
<path class="c" d="M77.851,170.591a39.492,39.492,0,0,1-.841-18.375,29.63,29.63,0,0,1,5.546-12.685,33.186,33.186,0,0,1,9.751-8.017c4.555-2.646,9.662-4.709,15-4.69,4.885.018,10.9,1.073,14.484,4.683,1.816,1.83,4.645-1,2.828-2.828-3.76-3.788-9.459-5.244-14.615-5.723-5.941-.551-11.551.971-16.866,3.579-4.61,2.263-9.4,5.337-12.727,9.314a33.208,33.208,0,0,0-6.733,12.928A46.111,46.111,0,0,0,72.4,159.5a38.526,38.526,0,0,0,1.591,12.156c.76,2.45,4.623,1.405,3.857-1.064Z"/>
<path class="c" d="M127.991,134.575c6.28,1.441,10.011,8.63,11.76,14.237a41.594,41.594,0,0,1,.916,21.175c-.552,2.508,3.3,3.58,3.857,1.063a45.621,45.621,0,0,0-1.146-24.017,32.394,32.394,0,0,0-4.913-9.559c-2.33-3.03-5.6-5.881-9.41-6.756-2.506-.575-3.576,3.28-1.064,3.857Z"/>
<path class="c" d="M126.136,150.232a26.2,26.2,0,0,1,7.628,16.283,2.054,2.054,0,0,0,2,2,2.014,2.014,0,0,0,2-2,30.529,30.529,0,0,0-8.8-19.112c-1.826-1.819-4.655,1.009-2.828,2.829Z"/>
<path class="h" d="M129.637,214.876c-.58,7.594-2.62,30.209-3.08,53.776-.161,8.134-.008,16.287.256,23.828-1.374,1.335-2.246,2.176-2.286,2.206.41.267,13.9,13.664,15.99,16.961-1.43,1.659,24.93-21.947,28.74-28.877,2.4-4.354.63-16.211-.86-21.562-1.46-5.263-3.3-13.309-4.85-18.3,0,0-.07-.237-.2-.651a58.67,58.67,0,0,0-6.218-12.116,13.132,13.132,0,0,0-2.782-2.98,32.539,32.539,0,0,0-4.52-3.406,143.136,143.136,0,0,0-20.19-9.1"/>
<path class="h" d="M88.887,214.08c.47,6.68,2.65,30.111,3.12,54.572.174,9.084-.03,18.193-.343,26.447-.588.136-.957.229-.957.229a6.943,6.943,0,0,0-2.27,1.451c-3.52,2.942-9.17,9.587-12.33,13.506-.65.8-1.19,1.491-1.59,2.014-5.93-3.712-24.06-23.309-27.49-29.529-2.4-4.354-.62-16.211.86-21.562,1.47-5.263,3.3-13.309,4.85-18.3,0,0,.07-.237.2-.651,2.19-5.647,5.82-12.835,9-15.1a32.539,32.539,0,0,1,4.52-3.406,144.654,144.654,0,0,1,22.43-9.9"/>
<path class="c" d="M120.561,144.824a16.407,16.407,0,0,1-1.977,2.029c-.222.2-.448.386-.677.573-.11.089-.22.177-.331.264.34-.269-.124.091-.155.115-.558.414-1.134.806-1.722,1.177a26.149,26.149,0,0,1-9.164,3.611,2,2,0,1,0,1.063,3.857,30.058,30.058,0,0,0,10.119-4.014,22.657,22.657,0,0,0,5.672-4.784,2.059,2.059,0,0,0,0-2.828,2.014,2.014,0,0,0-2.828,0Z"/>
<path class="c" d="M86.868,156.81a18.115,18.115,0,0,0-3.067,4.25c-.413.793-.833,1.588-1.186,2.41-.4.925-.727,1.874-1.1,2.807a2.007,2.007,0,0,0,.2,1.542,2,2,0,0,0,3.656-.478c.145-.362.28-.728.415-1.093q.106-.288.216-.573c.042-.109.086-.218.129-.327.119-.3-.049.053-.032.073-.078-.093.527-1.1.594-1.236.186-.369.372-.739.563-1.106a17.716,17.716,0,0,1,1.074-1.829c.1-.15.211-.3.318-.444.155-.212-.015.043-.082.106a2.829,2.829,0,0,0,.207-.254c.294-.353.6-.69.924-1.02a2,2,0,1,0-2.828-2.828Z"/>
<path class="c" d="M106.6,142.892c-1.681,3.774-4.271,7.536-8.008,9.488a35.851,35.851,0,0,1-12.413,3.549,2.063,2.063,0,0,0-2,2,2.011,2.011,0,0,0,2,2,41.3,41.3,0,0,0,14.432-4.1c4.3-2.244,7.5-6.564,9.443-10.922a2.063,2.063,0,0,0-.717-2.737,2.017,2.017,0,0,0-2.737.718Z"/>
<path class="c" d="M88.193,220.46a52.229,52.229,0,0,0,22.052,4.621,58.23,58.23,0,0,0,19.639-4.14,2.064,2.064,0,0,0,1.4-2.46,2.014,2.014,0,0,0-2.461-1.4,55.374,55.374,0,0,1-18.2,3.983,47.441,47.441,0,0,1-20.409-4.061,2.068,2.068,0,0,0-2.737.717,2.015,2.015,0,0,0,.718,2.737Z"/>
<path class="c" d="M89.389,216.448c.583-.2,1.151-.46,1.72-.7q.8-.333,1.592-.67l.476-.2.228-.1c-.4.168-.084.034.019-.008.229-.092.458-.181.686-.277a6.464,6.464,0,0,0,1.847-1.153,5.493,5.493,0,0,0,1.61-2.941c.3-1.381.472-2.815.65-4.214a1.989,1.989,0,0,0-.586-1.414,2,2,0,0,0-2.828,0,2.343,2.343,0,0,0-.586,1.414c-.051.4.045-.291-.015.108-.028.187-.055.374-.085.56-.048.305-.1.609-.151.913-.067.42-.12.841-.195,1.259a9.271,9.271,0,0,1-.3,1.114c-.049.162.1-.286.118-.277s-.053.109-.057.117c-.043.077-.082.155-.128.23-.031.05-.07.1-.1.149-.084.162.192-.236.178-.223-.079.072-.143.167-.219.243s-.148.13-.218.2c-.168.168.37-.244.158-.123-.046.027-.089.063-.134.092-.1.062-.2.12-.3.175-.077.041-.494.224-.214.116s-.106.036-.207.076c-.086.035-.171.072-.256.108l-1.231.52c-.077.032-.154.063-.23.1-.049.022.473-.2.277-.117l-.122.052-.585.246c-.625.262-1.247.545-1.888.767a2,2,0,0,0,1.064,3.858Z"/>
<path class="c" d="M119.617,206.459c.172,1.315.341,2.663.622,3.96a5.379,5.379,0,0,0,1.816,3.1,10.681,10.681,0,0,0,2.752,1.427q1.135.459,2.27.921l1.251.51c.244.1,1.218.509.23.089a2.194,2.194,0,0,0,1.541.2,2,2,0,0,0,.478-3.656c-1.37-.582-2.753-1.131-4.132-1.69l-.823-.334-.2-.08-.043-.018a1.29,1.29,0,0,1-.257-.1c.038.075.41.187.071.02-.122-.06-.243-.125-.36-.195-.083-.051-.424-.3-.15-.084s-.04-.042-.1-.1c-.089-.086-.162-.189-.252-.272.4.37.176.24.057.044-.052-.086-.1-.175-.144-.265-.179-.343.149.424.052.123-.035-.109-.074-.217-.105-.327a11.79,11.79,0,0,1-.282-1.5q-.058-.4-.129-.809c-.04-.224-.079-.449-.114-.675-.024-.149-.118-.829-.048-.293a2.2,2.2,0,0,0-.586-1.414,2.033,2.033,0,0,0-1.414-.586c-.967.043-2.145.889-2,2Z"/>
<path class="c" d="M138.906,172.984a2.151,2.151,0,0,1,3.039.4,4.627,4.627,0,0,1,.441,2.356,14.049,14.049,0,0,1-.2,2.9c-.629,3.449-2.368,7.594-6.2,8.281a2.018,2.018,0,0,0-1.4,2.461,2.045,2.045,0,0,0,2.46,1.4c5.98-1.073,8.835-7.817,9.285-13.237.233-2.81-.015-5.986-2.442-7.8a6.259,6.259,0,0,0-7.815.41,2.015,2.015,0,0,0,0,2.828,2.044,2.044,0,0,0,2.829,0Z"/>
<path class="c" d="M134.474,185.71a15.828,15.828,0,0,1-.924,4.268c-.063.191-.489,1.308-.217.692-.133.3-.272.6-.42.892a36.289,36.289,0,0,1-3.123,5.02c-2.7,3.705-6.374,7.634-11,8.719-2.5.588-1.445,4.446,1.063,3.857,5.6-1.313,9.942-5.888,13.236-10.349,2.842-3.848,5.185-8.209,5.383-13.1.1-2.574-3.9-2.57-4,0Z"/>
<path class="c" d="M82.206,170.156a6.26,6.26,0,0,0-7.814-.41c-2.43,1.809-2.675,5-2.442,7.8.45,5.42,3.3,12.164,9.285,13.237a2.057,2.057,0,0,0,2.46-1.4,2.018,2.018,0,0,0-1.4-2.461c-3.836-.687-5.574-4.833-6.2-8.281a14.045,14.045,0,0,1-.2-2.74,5.423,5.423,0,0,1,.375-2.408,2.136,2.136,0,0,1,3.108-.513,2.053,2.053,0,0,0,2.828,0,2.015,2.015,0,0,0,0-2.828Z"/>
<path class="c" d="M80.008,185.5a32.975,32.975,0,0,0,7.03,15.782c3.962,4.69,9.208,8.065,15.382,8.732a2.013,2.013,0,0,0,2-2,2.045,2.045,0,0,0-2-2c-5.22-.564-9.575-3.927-12.812-7.871-3.2-3.9-4.885-8.793-5.743-13.707a2.017,2.017,0,0,0-2.46-1.4,2.045,2.045,0,0,0-1.4,2.461Z"/>
<path class="c" d="M144.1,249.2c-.032,8.177-1.327,16.328-1.362,24.5-.011,2.575,3.989,2.578,4,0,.035-8.176,1.33-16.327,1.362-24.5.009-2.574-3.991-2.577-4,0Z"/>
<path class="c" d="M68.185,249.2c.025,4.236.683,8.528,1.091,12.738.4,4.128,1.064,8.34,1.092,12.493.017,2.573,4.017,2.579,4,0-.028-4.153-.691-8.365-1.092-12.493-.408-4.21-1.066-8.5-1.091-12.738-.016-2.573-4.016-2.578-4,0Z"/>
<path class="c" d="M143.9,272.352c-3.215,3.641-6.725,7.04-10.162,10.469-3.5,3.495-6.929,7.163-10.628,10.451a2.026,2.026,0,0,0,.405,3.141c-.851-.618.157.206.369.41.55.533,1.095,1.072,1.639,1.611q2.5,2.482,4.952,5.01c1.75,1.8,3.488,3.62,5.179,5.478.692.76,1.377,1.526,2.039,2.312q.206.245.408.492c.035.043.423.534.247.3-.091-.117.331.459.439.627l.313-2.424c-1.47,1.742.3,4.433,2.437,3.189a11.766,11.766,0,0,0,1.626-1.327c2.06-1.784,4.072-3.626,6.074-5.474,5.767-5.321,11.5-10.735,16.781-16.546a31.715,31.715,0,0,0,5.059-6.479c2.067-4.056,1.474-9.463.946-13.809a117.756,117.756,0,0,0-3.2-14.827c-1.4-5.509-2.579-11.131-4.845-16.362a51.293,51.293,0,0,0-4.915-9.162,25.965,25.965,0,0,0-8.232-7.4,140.178,140.178,0,0,0-20.668-9.3c-2.421-.887-3.465,2.977-1.064,3.857a145.385,145.385,0,0,1,16.764,7.346,37.763,37.763,0,0,1,4.046,2.231,40.648,40.648,0,0,1,3.565,2.851c2.119,1.833,3.549,4.5,4.834,6.948a44.591,44.591,0,0,1,3.305,7.483c.736,2.405,1.379,4.837,2.006,7.273,1.207,4.691,2.606,9.381,3.581,14.125a47.8,47.8,0,0,1,1.133,13.547,8.547,8.547,0,0,1-1.114,3.885,17.508,17.508,0,0,1-1.815,2.434,176.7,176.7,0,0,1-14.579,14.949q-3.957,3.753-8.008,7.407c-.851.765-1.705,1.528-2.571,2.276-.268.231-.543.454-.81.686-.315.276.02-.034.13-.095-.287.161.307-.122.361-.13l1.541.2,0,0,.99,1.727v0l-.273,1.009c.089-.2-.406.506-.258.33a2.06,2.06,0,0,0,.313-2.424,34.623,34.623,0,0,0-3.513-4.274c-1.768-1.954-3.59-3.858-5.425-5.748q-2.487-2.562-5.022-5.08a24.961,24.961,0,0,0-2.747-2.577l.4,3.141c3.7-3.287,7.127-6.956,10.628-10.45,3.437-3.43,6.947-6.828,10.162-10.47,1.7-1.923-1.12-4.763-2.828-2.828Z"/>
<path class="c" d="M127.637,214.876c-1.461,19.056-2.95,38.114-3.13,57.237-.064,6.736.069,13.473.3,20.2.088,2.567,4.089,2.579,4,0-.769-22.41.285-44.781,2.011-67.126.266-3.439.555-6.877.819-10.316.2-2.567-3.8-2.555-4,0Z"/>
<path class="c" d="M86.887,214.08c1.452,20.485,3.185,40.938,3.184,61.495,0,7.247-.2,14.493-.494,21.734-.1,2.574,3.9,2.569,4,0,.527-12.991.619-25.968.137-38.962-.418-11.232-1.131-22.45-2-33.656-.273-3.537-.58-7.072-.831-10.611-.181-2.553-4.182-2.573-4,0Z"/>
<path class="c" d="M69.863,275.9c6.041,5.98,11.674,12.4,17.416,18.661a25.361,25.361,0,0,0,2.014,2.18l.882-3.343c-1.859.6-3.377,2.1-4.762,3.42-1.547,1.481-3.006,3.054-4.435,4.648-2.845,3.171-5.593,6.443-8.188,9.823l2.737-.718c-.4-.255-.791-.532-1.172-.817.1.073-.147-.113-.377-.3-.314-.252-.623-.51-.93-.771-1.159-.984-2.28-2.014-3.383-3.061-2.791-2.647-5.474-5.408-8.1-8.222-2.595-2.783-5.133-5.624-7.57-8.548a52.414,52.414,0,0,1-4.961-6.607c-1.611-2.681-1.285-6.836-1.021-10.057a64.664,64.664,0,0,1,2.114-11.6c1.3-4.836,2.426-9.721,3.773-14.546a50.589,50.589,0,0,1,5.771-13.082,20.219,20.219,0,0,1,4.512-5.069,40.713,40.713,0,0,1,8.081-4.909,148.346,148.346,0,0,1,17.152-7.2c2.411-.851,1.373-4.717-1.064-3.857a157.68,157.68,0,0,0-16.2,6.666,60.531,60.531,0,0,0-7.805,4.114,28.891,28.891,0,0,0-5.613,4.747c-6.764,7.923-8.976,18.474-11.473,28.273a113.341,113.341,0,0,0-2.821,12.677c-.584,4.275-1.116,8.977.011,13.212.739,2.777,2.771,5.128,4.508,7.342,2.365,3.015,4.887,5.908,7.458,8.748,3.046,3.363,6.178,6.653,9.439,9.809a49.916,49.916,0,0,0,7.649,6.509,2.054,2.054,0,0,0,2.736-.718c2.308-3.006,4.785-5.9,7.307-8.728,1.3-1.45,2.613-2.882,3.993-4.251,1-.994,2.427-2.665,3.7-3.073,1.331-.427,2.085-2.31.882-3.342a19.72,19.72,0,0,1-1.546-1.67q-1.909-2.082-3.817-4.165c-3.236-3.526-6.476-7.05-9.757-10.535-1.419-1.507-2.839-3.015-4.31-4.472-1.831-1.813-4.661,1.014-2.828,2.829Z"/>
<path class="c" d="M88.085,298.558c4.026,1.013,8.147,1.352,12.2,2.192a18.735,18.735,0,0,1,4.905,1.28,22.1,22.1,0,0,1,4.826,4.011c1.612,1.56,3.143,3.2,4.744,4.772.551.541,1.147,1.035,1.691,1.583a5.387,5.387,0,0,1,.623.711c.239.345.284.813.5,1.131.285.413,0-.376.068-.111a.962.962,0,0,1-.089.265c.015-.029.136-.305.032-.079a8.019,8.019,0,0,1-.888,1.484,6.708,6.708,0,0,1-3.176,2.4c-2.63.841-6.307-.348-8.51-1.6-1.673-.953-3.865,1.012-2.737,2.736.536.819.23-.3.31-.186.014.02-.183.1-.22.076a12.6,12.6,0,0,1-1.424-.613c-1.089-.752-2.032-1.737-3.071-2.559-2.272-1.8-4.622-3.173-7.578-3.285-4.159-.159-9.813.517-12.453-3.491-1.41-2.141-4.875-.14-3.454,2.018a11.49,11.49,0,0,0,7.918,4.979,33.816,33.816,0,0,0,4.85.424,25.506,25.506,0,0,1,4.1.151c3.537.692,5.513,4.316,8.63,5.769a4.818,4.818,0,0,0,5.312-.446,3.668,3.668,0,0,0,.531-4.855L103,320.046a17.5,17.5,0,0,0,9.928,2.323,10.642,10.642,0,0,0,8.229-6.285c1.759-3.959-2.449-6.961-4.871-9.428-1.842-1.877-3.684-3.757-5.649-5.506a14.814,14.814,0,0,0-5.805-3.52C99.7,296.171,94.313,296,89.149,294.7c-2.5-.628-3.562,3.228-1.064,3.858Z"/>
<path class="c" d="M118.329,319.518a49.354,49.354,0,0,1,7.325-2.384c1.551-.281,3.483-.139,5.165-.262a16.126,16.126,0,0,0,5.793-1.342,10.186,10.186,0,0,0,4.432-4.452c1.271-2.242-2.183-4.26-3.454-2.018a6.327,6.327,0,0,1-3.242,3.115,15.052,15.052,0,0,1-4.893.77,28.3,28.3,0,0,0-5.283.423,66.191,66.191,0,0,0-6.907,2.292c-2.413.846-1.375,4.712,1.064,3.858Z"/>
<path class="c" d="M111.181,304.473a8.837,8.837,0,0,1,2.961-2.437,23.894,23.894,0,0,1,3.477-.916c1.6-.384,3.18-.707,4.806-.956a21.926,21.926,0,0,0,5.054-1.216,2.066,2.066,0,0,0,1.4-2.461,2.014,2.014,0,0,0-2.461-1.4,22.455,22.455,0,0,1-5.21,1.24c-1.738.266-3.421.654-5.133,1.045a19.434,19.434,0,0,0-3.913,1.193,11.341,11.341,0,0,0-3.806,3.077,2.054,2.054,0,0,0,0,2.828,2.015,2.015,0,0,0,2.828,0Z"/>
<path class="c" d="M119.2,191.32a4.425,4.425,0,0,1,.76.763l-.312-.405a4.582,4.582,0,0,1,.581,1l-.2-.478a4.54,4.54,0,0,1,.215.66,2.238,2.238,0,0,0,.919,1.195,1.487,1.487,0,0,0,.743.238,1.526,1.526,0,0,0,.8-.036,2.025,2.025,0,0,0,1.2-.919,2.139,2.139,0,0,0,.2-1.541,7.269,7.269,0,0,0-.424-1.155,4.489,4.489,0,0,0-.351-.665,7.725,7.725,0,0,0-.733-.957,4.3,4.3,0,0,0-.563-.525,2.054,2.054,0,0,0-2.828,0,2.01,2.01,0,0,0-.586,1.414l.071.532a2,2,0,0,0,.515.882Z"/>
<path class="c" d="M103.076,195.613c1.733,1.7,4.435,2.224,6.768,2.222s5.035-.525,6.769-2.222a2,2,0,1,0-2.828-2.829c-.077.076-.405.34-.085.094s-.1.059-.2.12c-.138.085-.281.164-.427.237a2.307,2.307,0,0,0-.3.14c.131-.094.4-.153.09-.045a9.979,9.979,0,0,1-1.423.389c-.072.013-.605.084-.118.029-.145.016-.291.032-.437.044-.347.029-.7.043-1.045.043-.319,0-.639-.011-.957-.035-.176-.014-.352-.032-.527-.052.272.031.17.022-.04-.015a8.791,8.791,0,0,1-1.443-.382c-.193-.07-.365-.239.033.024a2.361,2.361,0,0,0-.249-.117,5.311,5.311,0,0,1-.474-.26c-.116-.071-.224-.167-.343-.232.546.3.24.194.061.018a2,2,0,0,0-2.829,2.829Z"/>
<path class="c" d="M108.676,182.973a25.515,25.515,0,0,1,.6,2.757l-.071-.532a1.676,1.676,0,0,1,.01.381l.071-.532a.969.969,0,0,1-.041.171l.2-.477a.692.692,0,0,1-.06.11l.312-.405a.583.583,0,0,1-.09.089l.405-.313a1.821,1.821,0,0,1-.218.116l.478-.2a1.591,1.591,0,0,1-.369.107l.532-.071a1.422,1.422,0,0,1-.345,0l.531.072c-.13-.018-.258-.05-.388-.068a1.515,1.515,0,0,0-.8-.035,1.486,1.486,0,0,0-.743.237,2,2,0,0,0-.718,2.736l.313.405a2,2,0,0,0,.883.514c.348.047.686.134,1.041.15a3.423,3.423,0,0,0,1.6-.391,2.438,2.438,0,0,0,1.314-1.592,3.751,3.751,0,0,0-.014-1.65c-.15-.888-.355-1.768-.583-2.639a2.064,2.064,0,0,0-.92-1.2,2.038,2.038,0,0,0-1.541-.2,2.017,2.017,0,0,0-1.195.919,2.1,2.1,0,0,0-.2,1.541Z"/>
<path class="c" d="M96.913,179.553c1.114-.338,2.23-.668,3.342-1.013a2.1,2.1,0,0,0,1.2-.919,2,2,0,0,0-2.259-2.938c-1.111.345-2.228.675-3.342,1.013a2.089,2.089,0,0,0-1.2.919,2.043,2.043,0,0,0-.2,1.541,2.022,2.022,0,0,0,.92,1.195,2.044,2.044,0,0,0,1.541.2Z"/>
<path class="c" d="M123.77,175.628c-1.117-.338-2.254-.6-3.368-.945a2,2,0,0,0-2.461,1.4,2.027,2.027,0,0,0,.2,1.541,2.141,2.141,0,0,0,1.195.919c1.115.344,2.252.607,3.368.945a2,2,0,0,0,2.461-1.4,2.027,2.027,0,0,0-.2-1.541,2.129,2.129,0,0,0-1.2-.919Z"/>
</g>
</svg>