<!DOCTYPE svg PUBLIC "-//W3C//DTD SVG 1.1//EN" "http://www.w3.org/Graphics/SVG/1.1/DTD/svg11.dtd">
<!-- Uploaded to: SVG Repo, www.svgrepo.com, Transformed by: SVG Repo Mixer Tools -->
<svg width="800px" height="800px" viewBox="-20.13 0 314.23 314.23" xmlns="http://www.w3.org/2000/svg" fill="#000000">
<g id="SVGRepo_bgCarrier" stroke-width="0"/>
<g id="SVGRepo_tracerCarrier" stroke-linecap="round" stroke-linejoin="round"/>
<g id="SVGRepo_iconCarrier">
<defs>
<style>.a{fill:#ffffff;}.b{fill:#00b386;}.c{fill:#c6c6c6;}.d{fill:#211715;}</style>
</defs>
<path class="a" d="M84.766,70.97a9.051,9.051,0,0,1,.861-2.145,5.6,5.6,0,0,1,3.326-2.637l-.191-.736A53.506,53.506,0,0,1,86.957,50.04a48.943,48.943,0,0,1,20.208-38.292,47.944,47.944,0,0,1,29.143-9.3,47.939,47.939,0,0,1,29.143,9.292,48.939,48.939,0,0,1,20.207,38.292,53.461,53.461,0,0,1-1.8,15.412l-.179.686a5.623,5.623,0,0,1,3.528,2.7c1.809,3.137,1.732,8.917.518,12.493-.86,2.533-2.268,6.407-5.664,9.186a6.849,6.849,0,0,1-6.012,1.428,48.568,48.568,0,0,1-9.165,17.485,42.034,42.034,0,0,1-7.957,7.577c0,.478,0,.786,0,.786a70.621,70.621,0,0,1-20.775,14.346c-.427.19-1.552,1.213-.839,2.09h-2.12c.713-.877-.411-1.9-.839-2.09a70.6,70.6,0,0,1-20.774-14.346s0-.349,0-.865a42.246,42.246,0,0,1-7.846-7.5,48.584,48.584,0,0,1-9.149-17.428A6.92,6.92,0,0,1,90.772,90.5c-3.4-2.779-4.8-6.653-5.664-9.186A19.6,19.6,0,0,1,84.766,70.97Z"/>
<path class="a" d="M174.9,262.793c-.879-4.337-1.7-8.393-2.433-11.987H101.014c-2.925,15.052-8.008,39.459-12.24,61.025h95.919C181.868,297.323,178.034,278.264,174.9,262.793Z"/>
<path class="b" d="M89.891,245.836l-15.323,8.227L53.56,247.085c-7.908-3.389-14.4-10.605-13.964-20.722.361-8.334,2.644-17.442,3.972-22.667,4.084-16.054,11.5-40.25,15.306-46.389A45.685,45.685,0,0,1,76.4,141.113a173.485,173.485,0,0,1,24.4-9.972c2.147-.709,4.453-1.626,6.374-2.316,4.81,7.822,9.2,15.614,15.68,22.018,1.884-2.524,5.41-7.1,8.216-10.838,2.142-2.852,3.729-5.309,4.119-5.789h2.12c.39.48,1.977,2.937,4.119,5.789,2.806,3.735,6.332,8.314,8.216,10.838,6.5-6.427,10.9-14.253,15.736-22.1,2.185.885,6.464,2.384,8.689,3.238,8.774,3.366,16.917,6.458,24.25,10.389a45.13,45.13,0,0,1,16.875,15.569c2.288,3.595,5.794,12,7.108,15.986,3.021,9.159,5.6,19.243,9.073,31.611a95.738,95.738,0,0,1,3.278,21.053c.438,10.117-5.667,18.447-13.889,20.781L202.1,250.7l-30.555-13.694c-20.283.018-45.308.036-65.306.053Z"/>
<path class="c" d="M92.147,65.934a6.6,6.6,0,0,0-1.2-.066,7.691,7.691,0,0,0-1.993.316,53.927,53.927,0,0,1-2-16.144A48.645,48.645,0,0,1,98.775,19.514c1.283,3.023,4.5,9.051,6.665,10.689,3.13,2.37,2.58,5.52.83,8.5-2.78,4.73-5.07,8.07-6.82,13.27-1.72,5.112-2.58,10.415-3.881,15.587A6.2,6.2,0,0,0,92.147,65.934Z"/>
<path class="c" d="M178.438,66.687a5.746,5.746,0,0,0-1.477,1.183c-1.346-5.27-2.205-10.682-3.961-15.9-1.75-5.2-4.04-8.54-6.82-13.27-1.75-2.98-2.3-6.13.83-8.5,2.2-1.66,5.473-7.845,6.722-10.823a48.641,48.641,0,0,1,11.926,30.652,53.878,53.878,0,0,1-1.985,16.094,7.889,7.889,0,0,0-1.793-.258A6.637,6.637,0,0,0,178.438,66.687Z"/>
<path class="d" d="M186.168,66.082C189.59,52.7,188.32,38.33,181.486,26.2A52,52,0,0,0,158.537,4.831,53.8,53.8,0,0,0,118.6,2.982,52.161,52.161,0,0,0,93.216,22.84C84.63,35.493,82.7,51.432,86.448,66.09c.764,2.991,5.4,1.723,4.628-1.276-3.1-12.139-2-25.173,4.2-36.183a47.37,47.37,0,0,1,20.88-19.486c11.23-5.322,24.933-5.686,36.587-1.539a46.218,46.218,0,0,1,22.695,17.918c7.745,11.58,9.525,25.9,6.1,39.282-.765,3,3.863,4.272,4.629,1.276Z"/>
<path class="d" d="M171.658,18.172a47.808,47.808,0,0,1-4.186,7.8c-1.687,2.529-4.6,4.106-5.029,7.45-.487,3.805,2.031,7.092,3.867,10.181a47.5,47.5,0,0,1,4.742,10.137c1.477,4.738,2.317,9.641,3.514,14.45.746,3,5.376,1.727,4.629-1.276-1.955-7.856-3.2-15.774-7.146-22.964-.846-1.545-1.761-3.05-2.666-4.56C168.55,38,167.458,36.54,167.2,34.9a2.955,2.955,0,0,1,1.338-2.865,15.405,15.405,0,0,0,2.617-2.968,45.32,45.32,0,0,0,4.645-8.471,2.481,2.481,0,0,0-.861-3.283,2.416,2.416,0,0,0-3.284.861Z"/>
<path class="d" d="M96.7,20.714a48.6,48.6,0,0,0,3.989,7.459A19.531,19.531,0,0,0,103.18,31.4c.828.818,1.949,1.4,2.1,2.662.162,1.36-.653,2.7-1.311,3.82-.956,1.624-1.949,3.226-2.887,4.86a48.983,48.983,0,0,0-4.518,10.4c-1.351,4.527-2.167,9.189-3.307,13.769-.746,3,3.882,4.277,4.629,1.276,1.044-4.2,1.818-8.461,2.979-12.63a45.451,45.451,0,0,1,4.561-10.74c1.815-3.129,4.451-6.357,4.65-10.109a7.3,7.3,0,0,0-1.781-5.1c-.766-.913-1.9-1.7-2.559-2.556a40.766,40.766,0,0,1-4.892-8.76,2.415,2.415,0,0,0-3.284-.861,2.462,2.462,0,0,0-.861,3.283Z"/>
<path class="d" d="M97.263,65.86a9.335,9.335,0,0,0-10.191-1.5,8.915,8.915,0,0,0-4.633,6.02c-1.618,5.989-.079,12.959,3.333,18.071,2.313,3.467,5.975,6.607,10.428,6.018a2.48,2.48,0,0,0,2.4-2.4c0-1.164-1.106-2.571-2.4-2.4-3.324.44-5.578-2.245-7.052-4.9a19.338,19.338,0,0,1-2.451-7.64c-.2-2.468-.187-5.522,1.339-7.613q.142-.2-.055.078.15-.172.312-.332c.048-.042.532-.427.3-.268a3.95,3.95,0,0,1,1.611-.646,4.258,4.258,0,0,1,3.661.909c2.294,2.058,5.7-1.326,3.394-3.394Z"/>
<path class="d" d="M178.96,69.254a4.253,4.253,0,0,1,3.482-.947,4.074,4.074,0,0,1,1.79.684c-.149-.1.829.86.5.443,1.6,2.06,1.593,5.224,1.4,7.692a19.3,19.3,0,0,1-2.365,7.482c-1.47,2.711-3.751,5.51-7.137,5.062a2.412,2.412,0,0,0-2.4,2.4,2.462,2.462,0,0,0,2.4,2.4c7.3.966,11.783-7.062,13.547-12.96,1.561-5.224,1.543-13.289-3.522-16.663a9.293,9.293,0,0,0-11.089,1.013c-2.3,2.067,1.1,5.453,3.394,3.394Z"/>
<path class="d" d="M128.67,105.333a16.977,16.977,0,0,0,8.177,1.9,13.372,13.372,0,0,0,8.314-2.479,2.4,2.4,0,0,0,0-3.394,2.475,2.475,0,0,0-3.394,0c.744-.58.234-.184.043-.061-.161.1-.327.2-.5.287-.223.117-.779.25-.106.073-.23.06-.456.175-.684.248a12.77,12.77,0,0,1-1.913.437c.357-.057.129-.018-.1,0-.187.018-.375.034-.564.046q-.678.043-1.36.038-.609,0-1.217-.044-.281-.018-.558-.046c-.085-.009-.766-.128-.185-.018a17.6,17.6,0,0,1-1.788-.4c-.25-.075-.494-.165-.741-.249-.585-.2.429.213-.1-.036-.306-.145-.609-.3-.908-.454a2.4,2.4,0,1,0-2.423,4.145Z"/>
<path class="d" d="M134.563,86.258a37.4,37.4,0,0,1,.885,4.051l-.085-.638a2.489,2.489,0,0,1,.015.559l.086-.638a1.438,1.438,0,0,1-.062.251l.242-.573a1.021,1.021,0,0,1-.089.162l.376-.486a.908.908,0,0,1-.133.13l.486-.375a2.521,2.521,0,0,1-.321.17l.574-.242a2.331,2.331,0,0,1-.541.158l.638-.086a2.158,2.158,0,0,1-.508,0l.638.086c-.191-.027-.379-.073-.57-.1a1.812,1.812,0,0,0-.957-.043,1.778,1.778,0,0,0-.893.285,2.4,2.4,0,0,0-.861,3.283,2.3,2.3,0,0,0,1.435,1.1c.464.063.914.18,1.387.2a4.486,4.486,0,0,0,2.081-.5A3.072,3.072,0,0,0,140.069,91a4.943,4.943,0,0,0-.02-2.138c-.22-1.3-.522-2.6-.857-3.878a2.476,2.476,0,0,0-1.1-1.434,2.4,2.4,0,0,0-3.526,2.71Z"/>
<path class="d" d="M114.376,74.7c-.676,2.2-.235,7.255,3.929,7.685,5.5-.033,5.8-6.146,3.944-9.021C120.732,71.012,116.272,70.033,114.376,74.7Z"/>
<path class="d" d="M158.453,74.7c.677,2.2.236,7.255-3.929,7.685-5.5-.033-5.8-6.146-3.944-9.021C152.1,71.012,156.557,70.033,158.453,74.7Z"/>
<path class="d" d="M148.131,101.906c.3.55.553,1.123.8,1.7l-.242-.573a40.652,40.652,0,0,1,1.437,3.949,2.513,2.513,0,0,0,1.1,1.434,2.4,2.4,0,0,0,3.526-2.71c-.323-1.061-.7-2.107-1.105-3.138a28.023,28.023,0,0,0-1.372-3.084,2.423,2.423,0,0,0-3.283-.861,2.45,2.45,0,0,0-.861,3.284Z"/>
<path class="d" d="M121.2,99.148a29.082,29.082,0,0,0-1.439,3.233c-.432,1.092-.828,2.2-1.17,3.324a2.422,2.422,0,0,0,1.676,2.952,2.45,2.45,0,0,0,2.952-1.676,43.186,43.186,0,0,1,1.522-4.184l-.242.574c.259-.61.528-1.218.845-1.8a2.51,2.51,0,0,0,.242-1.849,2.4,2.4,0,0,0-4.386-.574Z"/>
<path class="d" d="M132.062,82.934c3.832-6.166,3.406-15.6-3.9-19.034a26.744,26.744,0,0,0-11.289-2.236c-3.6.008-7.455.448-10.659,2.184a13.359,13.359,0,0,0-6.436,7.526,14.3,14.3,0,0,0,.426,8.884c2.248,6.04,7.693,9.708,14,10.372a22.034,22.034,0,0,0,9.921-1.034,16.512,16.512,0,0,0,7.934-6.662c1.7-2.591-2.455-5-4.145-2.423-2.547,3.883-6.226,5.365-10.755,5.427-4.51.061-9.054-1.282-11.512-5.341-2.218-3.663-2.264-8.44,1.212-11.412a12.147,12.147,0,0,1,6.768-2.539,26.377,26.377,0,0,1,9.068.464c2.63.629,5.457,1.683,6.533,4.429,1.158,2.957.3,6.381-1.314,8.972C126.282,83.142,130.433,85.555,132.062,82.934Z"/>
<path class="d" d="M144.9,80.511a10.672,10.672,0,0,1-1.586-7.995,6.718,6.718,0,0,1,4.525-4.743,24.808,24.808,0,0,1,8.973-1.294c2.671.083,5.514.387,7.848,1.786a8.021,8.021,0,0,1,3.967,5.231,10.43,10.43,0,0,1-.75,5.756,11.543,11.543,0,0,1-10.22,6.651,18.3,18.3,0,0,1-7.55-.883,11.362,11.362,0,0,1-5.207-4.509c-1.687-2.572-5.845-.17-4.144,2.423A16.373,16.373,0,0,0,147.288,89a20.545,20.545,0,0,0,8.9,1.738c6.262-.025,12.459-2.626,15.5-8.382a15.6,15.6,0,0,0,1.8-8.334,12.173,12.173,0,0,0-4.7-8.7c-2.943-2.335-6.345-3.172-10.026-3.523a29.605,29.605,0,0,0-11.375,1.075c-3.8,1.164-7.214,3.617-8.483,7.556a15.3,15.3,0,0,0,1.856,12.5C142.385,85.552,146.539,83.145,144.9,80.511Z"/>
<path class="d" d="M132.106,75.325h8.607a2.4,2.4,0,1,0,0-4.8h-8.607a2.4,2.4,0,1,0,0,4.8Z"/>
<path class="a" d="M122.853,150.843c-6.712-6.636-11.185-14.763-16.209-22.866a36.576,36.576,0,0,1,6.931-10.2,70.6,70.6,0,0,0,20.774,14.346c.428.19,1.552,1.213.839,2.09-.39.48-1.977,2.937-4.119,5.789C128.263,143.74,124.737,148.319,122.853,150.843Z"/>
<path class="a" d="M149.643,150.843c6.712-6.636,11.186-14.763,16.209-22.866a36.594,36.594,0,0,0-6.93-10.2,70.621,70.621,0,0,1-20.775,14.346c-.427.19-1.552,1.213-.839,2.09.39.48,1.977,2.937,4.119,5.789C144.233,143.74,147.759,148.319,149.643,150.843Z"/>
<path class="d" d="M124.55,149.146c-6.532-6.514-11.018-14.6-15.834-22.381v2.423a35.34,35.34,0,0,1,6.556-9.711h-3.4a73.357,73.357,0,0,0,10.231,8.487q2.666,1.842,5.489,3.44,1.46.825,2.961,1.577.733.368,1.476.715a4.359,4.359,0,0,0,1.177.543c.117.068.1.052-.055-.046a1.441,1.441,0,0,1,.274-1.6,4.791,4.791,0,0,0-.642.856c-.4.561-.782,1.135-1.175,1.7-1.2,1.735-2.456,3.432-3.729,5.116-2.363,3.125-4.758,6.225-7.1,9.362a2.417,2.417,0,0,0,.861,3.284,2.459,2.459,0,0,0,3.284-.861c3.938-5.266,8.017-10.419,11.762-15.826.115-.165.246-.326.349-.5.041-.069.206-.318-.031.03-.343.5.246-.318.255-.332a3.438,3.438,0,0,0,.417-2.781c-.485-1.734-1.912-2.478-3.4-3.183a68.8,68.8,0,0,1-9.382-5.4,66.71,66.71,0,0,1-9.619-7.984,2.436,2.436,0,0,0-3.4,0,37.745,37.745,0,0,0-6.376,8.825,12.949,12.949,0,0,0-1.171,2.431c-.317,1.148.378,2.066.945,2.989.967,1.574,1.923,3.155,2.889,4.73,3.8,6.2,7.82,12.325,12.992,17.482C123.346,154.724,126.741,151.331,124.55,149.146Z"/>
<path class="d" d="M151.34,152.54c5.172-5.157,9.191-11.283,12.992-17.482.966-1.575,1.922-3.156,2.889-4.73.573-.932,1.266-1.821.945-2.989A12.791,12.791,0,0,0,167,124.908a37.745,37.745,0,0,0-6.376-8.825,2.437,2.437,0,0,0-3.4,0,68.126,68.126,0,0,1-17.708,12.753c-1.385.693-2.945,1.152-3.939,2.4a3.83,3.83,0,0,0-.9,2.443,3.361,3.361,0,0,0,.394,1.481,5.329,5.329,0,0,0,.349.509c.538.764-.175-.245-.007,0q2.637,3.825,5.433,7.529c2.238,2.954,4.5,5.889,6.722,8.858a2.477,2.477,0,0,0,3.284.861,2.419,2.419,0,0,0,.861-3.284c-2.3-3.081-4.656-6.127-6.977-9.195-1.281-1.693-2.545-3.4-3.757-5.139-.426-.613-.84-1.236-1.274-1.845a4.791,4.791,0,0,0-.642-.856,1.441,1.441,0,0,1,.274,1.6c-.154.1-.172.114-.055.046a4.359,4.359,0,0,0,1.177-.543q.743-.348,1.477-.715,1.4-.7,2.775-1.473,2.823-1.584,5.494-3.42a73.379,73.379,0,0,0,10.411-8.611h-3.4a35.34,35.34,0,0,1,6.556,9.711v-2.423c-4.816,7.781-9.3,15.867-15.834,22.381C145.756,151.33,149.15,154.725,151.34,152.54Z"/>
<path class="d" d="M93.466,89.494a51.62,51.62,0,0,0,11.119,22.28c5.287,6.184,12.113,11.1,20.3,12.354a2.478,2.478,0,0,0,2.953-1.676,2.419,2.419,0,0,0-1.677-2.953c-7.474-1.14-13.358-5.474-18.183-11.12a46.578,46.578,0,0,1-9.886-20.161c-.671-3.013-5.3-1.738-4.628,1.276Z"/>
<path class="d" d="M174.513,88.218A46.759,46.759,0,0,1,165.771,107c-4.344,5.511-9.833,10.234-16.751,12-2.991.763-1.723,5.394,1.276,4.628,7.7-1.965,13.994-7.111,18.87-13.234a51.618,51.618,0,0,0,9.975-20.895c.671-3.009-3.956-4.294-4.628-1.276Z"/>
<path class="d" d="M2.318,239.572c13.149,0,26.3-.051,39.445-.052,3.088,0,3.094-4.8,0-4.8-13.148,0-26.3.052-39.445.052-3.088,0-3.093,4.8,0,4.8Z"/>
<path class="d" d="M234.15,239.572c9.794,0,19.587-.033,29.381-.045q4.06-.006,8.121-.007c3.088,0,3.093-4.8,0-4.8q-15.981,0-31.96.046-2.772,0-5.542.006c-3.089,0-3.094,4.8,0,4.8Z"/>
<path class="d" d="M58.805,220.892a49.427,49.427,0,0,1,15.821-3.861,2.457,2.457,0,0,0,2.4-2.4,2.42,2.42,0,0,0-2.4-2.4,55.228,55.228,0,0,0-18.244,4.516,2.417,2.417,0,0,0-.861,3.284,2.462,2.462,0,0,0,3.284.861Z"/>
<path class="d" d="M106.235,239.461l51.212-.041q7.047-.006,14.094-.012c3.088,0,3.093-4.8,0-4.8q-25.68.022-51.361.042l-13.945.011c-3.088,0-3.094,4.8,0,4.8Z"/>
<path class="d" d="M194.28,175.813c-.809,15.258-2.061,30.489-2.894,45.747-.168,3.086,4.632,3.077,4.8,0,.833-15.258,2.085-30.489,2.894-45.747.164-3.087-4.636-3.078-4.8,0Z"/>
<path class="d" d="M164.444,130.933c4.285,1.769,8.7,3.244,13.024,4.913,5.458,2.106,10.906,4.256,16.167,6.822a50.571,50.571,0,0,1,12.933,8.561,39.985,39.985,0,0,1,8.334,11.154c4.135,8.278,6.736,17.1,9.227,25.983,1.553,5.536,3.05,11.088,4.6,16.625a95.291,95.291,0,0,1,3.027,15.177c.615,5.551,1.087,11.219-1.57,16.343a16.756,16.756,0,0,1-10.06,8.543c-2.957.87-1.7,5.5,1.276,4.629,9.716-2.856,15.779-12.412,15.672-22.33-.131-12.021-3.683-23.484-6.843-34.955-2.676-9.715-5.312-19.423-9.41-28.653a50.176,50.176,0,0,0-7.552-12.418,47.454,47.454,0,0,0-12.7-10.456,144.267,144.267,0,0,0-18.751-8.459c-5.338-2.094-10.8-3.92-16.1-6.108a2.416,2.416,0,0,0-2.952,1.677,2.461,2.461,0,0,0,1.676,2.952Z"/>
<path class="d" d="M73.742,172.834c.676,10.07,1.672,20.115,2.372,30.182a2.457,2.457,0,0,0,2.4,2.4,2.419,2.419,0,0,0,2.4-2.4c-.7-10.067-1.7-20.112-2.372-30.182a2.457,2.457,0,0,0-2.4-2.4,2.421,2.421,0,0,0-2.4,2.4Z"/>
<path class="d" d="M107.117,126.3c-5.977,2.1-12,4.139-17.9,6.468a121.254,121.254,0,0,0-15.788,7.216A47.353,47.353,0,0,0,60.06,151.525a40.883,40.883,0,0,0-5.928,10.211,266.462,266.462,0,0,0-9.141,27.616C42.032,199.6,39.064,210,37.709,220.6c-.8,6.225-.793,12.3,2.395,17.9a25.949,25.949,0,0,0,12.244,10.66,2.478,2.478,0,0,0,3.284-.861,2.417,2.417,0,0,0-.861-3.283,22.076,22.076,0,0,1-10-8.078c-2.694-4.228-3.01-8.79-2.556-13.669.942-10.141,3.868-20.139,6.629-29.91,2.621-9.273,5.4-18.55,8.823-27.562a39.089,39.089,0,0,1,3.839-8.146,42.837,42.837,0,0,1,11.589-11.782c4.891-3.335,10.552-5.7,16.02-7.912,6.334-2.566,12.837-4.754,19.282-7.021a2.459,2.459,0,0,0,1.676-2.952,2.422,2.422,0,0,0-2.952-1.677Z"/>
<path class="a" d="M187.828,271.542c-.55.41-1.1.8-1.64,1.14-1.245.794-4.121,1.8-6.025.838a3.631,3.631,0,0,1-2-2.766l-.156.1c-2.4,1.595-6.368,2.541-8.694.716a5.315,5.315,0,0,1-.869-6.441,8.214,8.214,0,0,1,.806-1.274c-1.266.576-3.647,1.367-5.2-1.463-1.026-1.874-.373-4.893,1.826-7.243.829-.887,2.528-3.131,4.239-4.8.367-.356.74-.71,1.115-1.061l-1.644-.155a4.051,4.051,0,0,1-3.369-2.01,4.8,4.8,0,0,1-.2-3.443c.7-2.263,4.325-4.894,8.1-7.154A30.98,30.98,0,0,1,185.4,232.24a38.587,38.587,0,0,1,11.08-.42c3.759.4,6.476,1.989,9.245,3.625a24.652,24.652,0,0,1,6.236,6.206,18.314,18.314,0,0,1,2.585,9.079c-.122,4.9-1.225,7.708-4.1,11.041a82.613,82.613,0,0,1-6.52,6.6c-2.682,2.366-5.355,2.8-7.355,2.065-1.609-.59-1.944-3.545-1.375-4.753l.108-.228-.054.042c-.6.473-1.132.885-1.524,1.2C192.345,267.79,190.089,269.861,187.828,271.542Z"/>
<path class="d" d="M181.708,248.381c-2.93,2.562-5.741,5.25-8.542,7.952-2.466,2.379-5.391,4.768-6.959,7.882-1.667,3.314-.874,8.058,2.616,9.884,3.257,1.7,7.445.724,10.4-1.17,2.592-1.662.188-5.818-2.423-4.144a8.629,8.629,0,0,1-3.331,1.329,7.75,7.75,0,0,1-1.441.041,3.418,3.418,0,0,1-.833-.221c.244.1-.694-.48-.348-.2a2.506,2.506,0,0,1-.463-.69,3.207,3.207,0,0,1-.231-1.758,5.826,5.826,0,0,1,1.353-2.429,78.665,78.665,0,0,1,6.134-6.171c2.441-2.355,4.91-4.677,7.463-6.91a2.4,2.4,0,0,0-3.394-3.394Z"/>
<path class="d" d="M167.611,261.924c-.085.023-.72.128-.18.075a3.774,3.774,0,0,1-.542.012c.064,0-.135-.029-.157-.049a5.83,5.83,0,0,1-.42-.466l-.184-.312q.083.265,0,.024a2.945,2.945,0,0,1-.158-.6c.058.374.012-.4.013-.4.053-1.678,1.51-3.221,2.681-4.626a88.833,88.833,0,0,1,10.944-10.474,2.42,2.42,0,0,0,0-3.394,2.449,2.449,0,0,0-3.394,0,89.767,89.767,0,0,0-12.707,12.548c-1.84,2.335-3.036,5.65-1.875,8.559a5.948,5.948,0,0,0,7.253,3.733c2.983-.789,1.718-5.42-1.276-4.629Z"/>
<path class="d" d="M190.2,253.465c-3.167,2.811-6.385,5.569-9.429,8.515-2.677,2.59-6.028,5.951-4.77,10.042,1.433,4.662,6.683,4.936,10.479,3.216a23.421,23.421,0,0,0,4.841-3.4c1.383-1.127,2.707-2.325,4.1-3.439,2.707-2.163,5.541-4.187,8.132-6.49a2.4,2.4,0,1,0-3.394-3.394c-2.023,1.8-4.206,3.425-6.34,5.088-2.256,1.758-4.382,3.67-6.631,5.435a11.972,11.972,0,0,1-3.59,2.2c-1,.306-2.325.522-2.867-.3-.478-.727-.191-1.347.461-2.292a24.129,24.129,0,0,1,3.284-3.563c2.958-2.829,6.057-5.5,9.118-8.215a2.4,2.4,0,1,0-3.395-3.394Z"/>
<path class="d" d="M169.592,246.734c-1,.034-1.486-.969-1.372-1.877a4.8,4.8,0,0,1,1.8-2.533,35.615,35.615,0,0,1,9.071-5.723,30.837,30.837,0,0,1,9.392-2.376,26.512,26.512,0,0,1,10.3.5,21.108,21.108,0,0,1,7.084,3.8,16.769,16.769,0,0,1,4.97,6.25,15.217,15.217,0,0,1,1,9.228,14.046,14.046,0,0,1-3.6,6.657c-1.158,1.3-2.372,2.544-3.61,3.764a18.737,18.737,0,0,1-3.908,3.3,5.056,5.056,0,0,1-1.889.627,5.674,5.674,0,0,1-.763.008c-.1-.013-.788-.226-.454-.046.257.138-.06-.056-.163-.31.076.189-.1-.534-.09-.443a1.743,1.743,0,0,1,.155-1.235,2.415,2.415,0,0,0-1.677-2.952,2.459,2.459,0,0,0-2.952,1.676,6.769,6.769,0,0,0,.191,4.839,4.945,4.945,0,0,0,4.014,3.146c4.44.712,7.837-2.181,10.794-5.081,2.647-2.6,5.567-5.377,7.218-8.746a19.6,19.6,0,0,0,1.561-11.741c-1.31-7.627-7.107-13.347-13.975-16.371a27.059,27.059,0,0,0-13.38-1.754,38.536,38.536,0,0,0-12.637,3.114,44.174,44.174,0,0,0-6.51,3.752,20.75,20.75,0,0,0-5.469,4.891,7.188,7.188,0,0,0-.926,6.364,6.345,6.345,0,0,0,5.832,4.071c3.081-.1,3.095-4.905,0-4.8Z"/>
<path class="d" d="M174.6,273.687c2.629,12.919,5.259,25.84,7.78,38.781a2.423,2.423,0,0,0,2.952,1.676,2.45,2.45,0,0,0,1.677-2.952c-2.522-12.941-5.151-25.862-7.78-38.781a2.4,2.4,0,1,0-4.629,1.276Z"/>
<path class="d" d="M91.088,312.468c3.012-15.341,6.156-30.654,9.247-45.979q1.1-5.464,2.187-10.933a2.462,2.462,0,0,0-1.676-2.952,2.423,2.423,0,0,0-2.953,1.676c-2.877,14.554-5.881,29.083-8.8,43.63q-1.331,6.639-2.637,13.282a2.46,2.46,0,0,0,1.676,2.952,2.422,2.422,0,0,0,2.952-1.676Z"/>
<path class="d" d="M113.361,253.206H164.8c3.088,0,3.093-4.8,0-4.8H113.361c-3.089,0-3.094,4.8,0,4.8Z"/>
<path class="d" d="M79.535,303.333q-5.3-.612-10.572-1.484l1.434,3.525q8.692-15.708,17.38-31.42c1.494-2.706-2.65-5.13-4.144-2.422q-8.675,15.719-17.38,31.42c-.681,1.23-.151,3.264,1.434,3.525q5.9.972,11.848,1.656a2.413,2.413,0,0,0,2.4-2.4,2.457,2.457,0,0,0-2.4-2.4Z"/>
<path class="d" d="M102.125,229.917c-5.078-9.076-10.714-19.318-12.839-22.692A3.075,3.075,0,0,0,86.06,205.5a5.89,5.89,0,0,0-3.153,1.66,2.952,2.952,0,0,0-.213,3.588c6.578,10.5,12.79,20.537,15.813,25.568,2.946,4.9,11.087,18.286,14.945,24.442a2.539,2.539,0,0,0,4.391-2.542C114.746,252.407,108.6,241.489,102.125,229.917Z"/>
<path class="a" d="M102.955,228.587a16.445,16.445,0,0,0-4.958-2.3,16.239,16.239,0,0,0-4.045-.594,40.7,40.7,0,0,0-5.2.44,58.966,58.966,0,0,1-9.819.468c-1.744-.105-4.5-.061-5.936.928a21.742,21.742,0,0,0-5.8,5.533,45.2,45.2,0,0,0-5.853,12.206c-.57,1.658-.4,5.055,1.04,6.052,2.954,2.043,9.859,9.42,13.866,11.245a12.8,12.8,0,0,0,4.9,1.191c2.14.013,4.8-1.126,4.746-4.631a6.973,6.973,0,0,0,4.936,1.554,6.335,6.335,0,0,0,2.946-.819,5.646,5.646,0,0,0,2.126-4.823l-.034-.356c.339.275.688.55,1.044.829a6.28,6.28,0,0,0,7.452-.255c.983-1,2.209-4.124,1.372-6.324l-.118-.285c.213.194.436.385.661.576a7.514,7.514,0,0,0,3.419,1.474,4.613,4.613,0,0,0,3.582-.628,4.808,4.808,0,0,0,1.494-4.969,14.122,14.122,0,0,0-2.565-4.825c-2.2-3.085-6.561-9.221-9.254-11.683"/>
<path class="d" d="M77.352,254.635a72.938,72.938,0,0,0,5.423,5.037c1.671,1.4,3.371,2.791,5.573,3.192a9.153,9.153,0,0,0,6.94-1.148,7.919,7.919,0,0,0,3.014-6.683,2.456,2.456,0,0,0-2.4-2.4,2.421,2.421,0,0,0-2.4,2.4c.014.215.017.423.012.638s.057-.109-.032.261c-.051.212-.105.42-.173.627-.032.1-.229.527-.095.256-.109.221-.234.427-.361.638-.086.143-.2.253-.034.061-.07.079-.548.485-.1.172a4.105,4.105,0,0,1-.362.215c-.464.264.159,0-.382.154-.172.048-.345.093-.516.143a2.8,2.8,0,0,1-.9.076c-.258,0-.512-.022-.769-.03-.19-.007-.318-.028-.052.01a6.908,6.908,0,0,1-1.126-.277c-.333-.1.459.266-.092-.037-.157-.086-.317-.165-.472-.256-.277-.163-.7-.455-.841-.56-.539-.4-1.364-1.119-1.988-1.659-1.551-1.342-3.035-2.756-4.467-4.224a2.4,2.4,0,1,0-3.395,3.394Z"/>
<path class="d" d="M84.565,248.058c2.309,2.127,4.644,4.228,7.054,6.24,2.106,1.759,4.33,4.086,7.133,4.559,2.523.425,5.6-.087,7.424-2.034a9.207,9.207,0,0,0,1.874-8.534,2.458,2.458,0,0,0-2.953-1.677,2.425,2.425,0,0,0-1.676,2.953,3.656,3.656,0,0,1-.082,2.6,3.5,3.5,0,0,1-.469,1.078c-.035.059-.374.538-.16.273.272-.337-.413.373-.061.071.259-.223-.244.137-.315.182-.092.051-.185.1-.28.143q.3-.123.058-.031a6.171,6.171,0,0,1-1.287.328c.4-.049-.308,0-.385,0a5.312,5.312,0,0,1-.787-.037c.338.048-.418-.124-.406-.121-.575-.165.11.113-.427-.167a16.151,16.151,0,0,1-2.37-1.8q-1.285-1.046-2.547-2.121c-2.02-1.723-3.991-3.5-5.944-5.3-2.269-2.09-5.672,1.3-3.394,3.394Z"/>
<path class="d" d="M83.54,259.3a2.242,2.242,0,0,1-.774,1.654,2.783,2.783,0,0,1-1.489.4,10.056,10.056,0,0,1-5.19-1.622c-3.046-1.924-5.648-4.567-8.305-6.977-1.208-1.094-2.418-2.192-3.725-3.169-.1-.077-.214-.153-.316-.234.378.3.021.03-.01-.041.068.158-.095-.328-.137-.51a6.584,6.584,0,0,1-.118-2.207,25.864,25.864,0,0,1,1.966-5.464,40.426,40.426,0,0,1,3.11-5.769,19.253,19.253,0,0,1,4.557-4.972,5.692,5.692,0,0,1,2.315-1.249,12.058,12.058,0,0,1,2.891-.167,94.247,94.247,0,0,0,12.557-.7c3.841-.386,8.479-.058,11.319,2.938a83.787,83.787,0,0,1,7.07,9.046c1.234,1.724,3.051,3.68,3.257,5.87.214,2.279-1.621,2.542-3.4,1.941a9.656,9.656,0,0,1-3.082-2.224c-1.079-.948-2.145-1.91-3.21-2.874-2.3-2.085-4.594-4.174-6.951-6.195a2.462,2.462,0,0,0-3.394,0,2.421,2.421,0,0,0,0,3.394c2.471,2.118,4.872,4.314,7.285,6.5,2.212,2,4.488,4.6,7.29,5.735,2.656,1.074,5.954,1.237,8.187-.851a7.55,7.55,0,0,0,1.609-7.9,25.747,25.747,0,0,0-3.894-6.441c-1.424-1.981-2.876-3.942-4.384-5.861a23.064,23.064,0,0,0-4.593-4.957,18.092,18.092,0,0,0-6.692-2.724,18.688,18.688,0,0,0-4.761-.328c-.711.04-1.42.105-2.128.183q-.591.066-1.179.144c.175-.023-1.57.2-.912.122a61.5,61.5,0,0,1-7.266.465c-2.511,0-5.116-.365-7.558.431-2.587.843-4.992,3.082-6.761,5.094-3.593,4.089-5.805,9.339-7.551,14.43a9.915,9.915,0,0,0,.016,6.55,5.866,5.866,0,0,0,2.13,2.736c.344.259.063.039,0-.012.181.138.356.285.532.43.37.305.732.62,1.093.937,3.619,3.181,7.057,6.947,11.273,9.358a13.144,13.144,0,0,0,8.624,1.773,6.56,6.56,0,0,0,5.331-5.406,2.477,2.477,0,0,0-1.676-2.952A2.418,2.418,0,0,0,83.54,259.3Z"/>
<path class="d" d="M88.774,314.23h95.919c3.089,0,3.094-4.8,0-4.8H88.774c-3.089,0-3.094,4.8,0,4.8Z"/>
</g>
</svg>