<!DOCTYPE svg PUBLIC "-//W3C//DTD SVG 1.1//EN" "http://www.w3.org/Graphics/SVG/1.1/DTD/svg11.dtd">
<!-- Uploaded to: SVG Repo, www.svgrepo.com, Transformed by: SVG Repo Mixer Tools -->
<svg version="1.1" id="Icons" xmlns="http://www.w3.org/2000/svg" xmlns:xlink="http://www.w3.org/1999/xlink" viewBox="0 0 32 32" xml:space="preserve" width="800px" height="800px" fill="#00b386">
<g id="SVGRepo_bgCarrier" stroke-width="0"/>
<g id="SVGRepo_tracerCarrier" stroke-linecap="round" stroke-linejoin="round"/>
<g id="SVGRepo_iconCarrier"> <style type="text/css"> .st0{fill:none;stroke:#00b386;stroke-width:2;stroke-linecap:round;stroke-linejoin:round;stroke-miterlimit:10;} </style> <g> <path d="M10,30c-4.4,0-8-3.6-8-8s3.6-8,8-8s8,3.6,8,8S14.4,30,10,30z"/> </g> <path d="M30,25h-2.1c-0.4-1.4-1.5-2.5-2.9-2.9l-2.6-9.9C22,10.9,20.8,10,19.5,10H8.7L7.4,5.2C7,3.9,5.8,3,4.5,3H2C1.4,3,1,3.4,1,4 s0.4,1,1,1h2.5c0.4,0,0.8,0.3,1,0.7l1.8,6.7C8.1,12.1,9,12,10,12c5.2,0,9.4,4,9.9,9h2.7l0.3,1.2c-1.7,0.5-2.9,2-2.9,3.8 c0,2.2,1.8,4,4,4c1.9,0,3.4-1.3,3.9-3H30c0.6,0,1-0.4,1-1S30.6,25,30,25z"/> </g>
</svg>